<svg width="129" height="138" viewBox="0 0 129 138" fill="none" xmlns="http://www.w3.org/2000/svg">
<path d="M87.8945 118.288C88.9488 120.286 90.1077 122.226 91.3664 124.102C92.6152 125.807 94.3511 127.149 95.5126 127.087C96.674 127.024 97.0924 126.144 96.9737 125.763C96.8551 125.382 94.0202 122.16 94.0202 122.16L93.2334 120.973C93.2334 120.973 96.3555 125.051 97.7667 125.763C99.1779 126.475 100.383 126.512 101.057 125.763C101.732 125.014 101.114 124.164 100.689 123.309C100.264 122.453 96.6677 120.137 96.3181 119.712C95.9684 119.288 95.8123 119.263 95.8123 119.263C95.8123 119.263 99.9148 122.16 100.677 122.547C100.92 122.672 102.475 123.715 102.962 122.691C103.449 121.667 102.906 120.63 100.464 119.163C98.0228 117.695 94.2637 115.416 93.5019 114.848C92.5861 114.304 91.6095 113.87 90.5921 113.555C89.8163 113.321 88.9888 113.321 88.213 113.555C87.7602 113.764 87.3892 114.117 87.1577 114.558C86.9262 115 86.8472 115.506 86.9329 115.997C87.1599 116.797 87.4828 117.566 87.8945 118.288Z" fill="#B1C4D4"/>
<path d="M67.5944 121.966C68.2188 121.342 69.4677 121.342 70.2545 122.503C71.0412 123.665 70.804 125.807 70.9289 126.487C71.0537 127.168 71.0787 128.361 71.3535 128.879C71.6574 129.504 72.0461 130.084 72.5086 130.602C73.0394 131.133 74.5693 131.851 74.9002 133.262C75.1543 134.043 75.2561 134.866 75.1999 135.685C75.0688 136.085 73.8387 136.147 73.3266 135.916C72.9395 135.747 72.3962 134.986 71.9966 136.066C71.597 137.146 71.597 137.152 70.4043 137.152C69.2117 137.152 68.9432 136.047 68.2813 135.654C67.6194 135.26 66.9512 135.654 66.408 135.916C65.8647 136.178 64.9468 136.185 65.078 135.385C65.2995 134.225 65.8011 133.136 66.5391 132.213C67.4695 131.002 68.2688 130.646 68.1314 129.428C67.994 128.211 67.6007 125.432 67.6007 125.432C67.4633 124.252 67.0012 122.566 67.5944 121.966Z" fill="#F5E58A"/>
<path d="M61.0442 121.617C60.451 120.992 59.1709 120.992 58.3904 122.148C57.6098 123.303 57.8346 125.457 57.716 126.131C57.5974 126.806 57.5599 128.042 57.2914 128.523C56.9828 129.147 56.5922 129.726 56.13 130.246C55.5992 130.783 54.0693 131.495 53.7384 132.906C53.4874 133.688 53.3857 134.51 53.4387 135.329C53.576 135.729 54.7999 135.797 55.312 135.56C55.6929 135.392 56.2361 134.63 56.6357 135.716C57.0354 136.803 57.0354 136.797 58.2343 136.797C59.4332 136.797 59.6954 135.698 60.3573 135.298C61.0192 134.898 61.6873 135.298 62.2306 135.56C62.7738 135.822 63.6918 135.829 63.5544 135.029C63.3319 133.869 62.8304 132.78 62.0932 131.857C61.1691 130.646 60.3698 130.29 60.5009 129.072C60.6321 127.855 61.0317 125.076 61.0317 125.076C61.2003 123.871 61.6686 122.21 61.0442 121.617Z" fill="#F5E58A"/>
<path d="M64.4098 136.522C99.2684 136.522 127.527 107.618 127.527 71.9623C127.527 36.3071 99.2684 7.40283 64.4098 7.40283C29.5513 7.40283 1.29279 36.3071 1.29279 71.9623C1.29279 107.618 29.5513 136.522 64.4098 136.522Z" fill="url(#paint0_linear_432_1148)" stroke="url(#paint1_linear_432_1148)" stroke-miterlimit="10"/>
<path d="M26.5508 107.167C26.5508 107.167 28.0869 112.331 29.111 114.248C30.3161 116.509 33.6318 119.974 33.6318 119.974" stroke="#B797B7" stroke-miterlimit="10"/>
<path d="M39.8823 109.578C40.1357 111.984 40.6401 114.357 41.3872 116.659C42.5923 120.274 45.7582 124.04 45.7582 124.04" stroke="#B797B7" stroke-miterlimit="10"/>
<path d="M93.4332 105.812C93.4332 105.812 93.2584 110.77 91.9284 113.93C90.5837 116.875 88.3784 119.344 85.6029 121.011" stroke="#B797B7" stroke-miterlimit="10"/>
<path d="M50.5038 28.1524C50.5038 28.1524 53.7009 23.975 54.8748 20.3221C55.4633 18.1513 55.6496 15.8911 55.4243 13.6533C55.2967 13.0593 55.3623 12.4401 55.6117 11.8861C55.9144 11.3535 56.2954 10.8694 56.7419 10.45" stroke="#B0CE7A" stroke-miterlimit="10"/>
<path d="M65.1529 28.2275C64.291 26.0797 63.7198 23.8264 63.4544 21.5274C63.342 19.6541 63.3608 13.5035 63.342 14.7461C63.3233 15.9887 63.342 13.466 63.1172 12.673C62.9162 12.0695 62.6503 11.4896 62.3242 10.9434" stroke="#B0CE7A" stroke-miterlimit="10"/>
<path d="M75.0563 28.1525C75.0563 28.1525 70.9164 25.0303 69.8611 21.6772C68.9744 18.861 68.6934 13.2786 68.6934 13.2786C68.7054 12.7224 68.5018 12.1832 68.1252 11.7738C67.8151 11.29 67.4194 10.8668 66.9575 10.5249" stroke="#B0CE7A" stroke-miterlimit="10"/>
<path d="M52.3022 3.45014C52.3022 3.45014 52.552 9.47586 52.552 9.95667C52.552 10.4375 55.749 12.3108 61.3439 12.3108C66.9387 12.3108 70.5292 10.1877 71.01 9.55703C71.3222 9.14491 71.3222 3.31277 71.3222 3.31277C71.3222 3.31277 71.6469 2.23875 69.5738 1.7517C67.5007 1.26465 64.6159 0.459136 61.1815 0.702663C57.8721 0.958678 52.4333 2.31368 52.3022 3.45014Z" fill="#D1E39B"/>
<path d="M61.7748 6.35371C67.0442 6.35371 71.316 5.01459 71.316 3.36271C71.316 1.71082 67.0442 0.371704 61.7748 0.371704C56.5053 0.371704 52.2335 1.71082 52.2335 3.36271C52.2335 5.01459 56.5053 6.35371 61.7748 6.35371Z" fill="#DBEAB4"/>
<path d="M71.6157 94.9785C73.5482 95.8885 75.6002 96.5192 77.7101 96.8518C82.512 97.4013 83.7546 97.3826 84.5788 98.8625C85.2033 99.9614 85.4718 109.596 84.0668 110.102C82.6618 110.608 74.9314 113.037 73.5827 112.881C72.2339 112.725 71.6157 94.9785 71.6157 94.9785Z" fill="#E19C98"/>
<path d="M82.1123 97.4014C83.6113 97.4639 85.0564 97.9775 86.2585 98.875C89.2745 100.923 89.5805 102.928 90.436 106.824C91.2914 110.72 91.0604 114.074 90.7794 114.685C90.4984 115.297 90.2736 116.459 89.1122 116.203C87.9507 115.947 87.4325 114.985 87.3013 113.924C87.1702 112.862 86.4459 109.478 86.4459 109.478C86.4459 109.478 86.883 114.442 86.6894 115.31C86.4958 116.178 86.9704 119.106 85.1908 119.394C83.0178 119.737 82.6494 110.714 82.0999 110.72C82.0999 110.72 81.8563 115.166 81.7377 116.84C81.619 118.513 80.5263 121.261 78.3033 121.136C76.0804 121.011 76.9733 118.051 77.1294 116.503C77.2855 114.954 77.4978 112.569 77.4978 112.569C77.4978 112.569 76.3801 116.359 75.4247 117.346C74.1552 118.781 72.6546 119.995 70.9851 120.936C68.9307 122.004 66.6141 123.009 65.7087 122.809C64.8032 122.609 63.9353 122.572 63.7105 121.673C63.5589 121.055 63.597 120.406 63.8197 119.81C64.0425 119.214 64.4396 118.699 64.9594 118.332C66.482 117.583 68.0788 116.995 69.7237 116.578C70.5292 116.509 73.1144 115.129 74.1447 114.017C74.9252 113.181 76.53 110.895 75.9742 108.76C75.2624 105.993 73.0332 103.952 70.0422 104.576C67.0512 105.2 66.5204 106.605 66.1333 107.28C65.6088 108.179 65.59 109.99 64.6971 110.265C63.8042 110.539 62.7739 109.703 62.8675 108.447C63.1029 106.315 63.7791 104.254 64.8532 102.397C65.5276 101.373 67.1948 98.9187 69.2741 99.5619C71.1201 100.216 73.0284 100.678 74.9689 100.942C76.1741 101.036 79.3774 101.242 81.0321 100.698C83.3549 99.9428 82.1123 97.4014 82.1123 97.4014Z" fill="#F9B5B2"/>
<path d="M91.6411 106.543C91.6411 106.543 90.2611 108.535 88.9435 108.685C87.626 108.835 86.8143 107.986 86.3772 108.06C85.9401 108.135 85.5342 109.253 84.2791 109.222C83.4476 109.193 82.6329 108.98 81.8938 108.597C81.6065 108.46 81.5004 110.614 80.314 110.396C79.1276 110.177 79.5772 110.927 79.2587 108.154C78.9402 105.382 78.6717 103.871 76.8109 102.416C74.9502 100.961 73.0644 98.4131 71.8155 98.3257C70.5667 98.2383 67.3759 97.7012 65.7336 98.1633C64.0914 98.6254 62.1931 103.003 62.1931 103.003L62.6365 112.469C62.6365 112.469 61.6186 124.333 63.648 124.957C65.6774 125.582 72.1028 121.629 73.1143 122.023C74.1259 122.416 74.9876 123.272 78.066 122.678C81.1445 122.085 86.1836 121.167 87.6323 120.355C89.0809 119.544 92.2593 118.726 92.815 116.609C93.3707 114.492 94.0264 110.052 94.0264 110.052L91.6411 106.543Z" fill="#B1C4D4"/>
<path d="M52.3022 97.4014C50.7646 98.0957 49.1539 98.6152 47.5003 98.9499C43.8349 99.743 42.3301 99.8491 41.4746 101.054C40.7503 102.078 40.2258 112.294 41.6932 112.619C43.1606 112.943 51.0596 114.592 52.4083 114.298C53.7571 114.005 52.3022 97.4014 52.3022 97.4014Z" fill="#E19C98"/>
<path d="M42.8109 100.036C41.2072 100.396 39.6942 101.08 38.365 102.047C35.299 104.02 34.9556 106.237 34.6184 110.208C34.2812 114.18 34.9119 117.47 35.2428 118.051C35.5738 118.632 35.9672 119.75 37.1161 119.35C38.2651 118.95 38.6335 117.939 38.6335 116.852C38.6335 115.766 38.9332 112.338 38.9332 112.338C38.9332 112.338 39.1143 117.333 39.4078 118.157C39.7012 118.981 39.6013 121.96 41.3997 122.022C43.5977 122.097 42.8546 113.099 43.3978 113.031C43.3978 113.031 44.1846 117.402 44.5156 119.063C44.8465 120.724 46.2577 123.303 48.4495 122.909C50.6412 122.516 49.3923 119.675 49.0739 118.157C48.7554 116.64 48.2184 114.305 48.2184 114.305C48.2184 114.305 49.7982 117.926 50.866 118.788C52.301 120.057 53.9389 121.077 55.7115 121.804C57.8845 122.616 60.3385 123.321 61.1815 123.053C62.0245 122.784 62.9112 122.597 63.0236 121.679C63.0949 121.044 62.9727 120.403 62.6729 119.839C62.3732 119.275 61.9099 118.815 61.3439 118.519C59.7428 117.961 58.0872 117.574 56.4047 117.364C55.5991 117.395 52.8642 116.346 51.7027 115.366C50.8223 114.635 48.9552 112.594 49.2425 110.371C49.6046 107.536 51.5653 105.238 54.6125 105.488C57.6597 105.737 58.3591 107.074 58.8212 107.686C59.4456 108.522 59.6954 110.308 60.6133 110.477C61.5312 110.645 62.4553 109.684 62.2056 108.447C61.72 106.362 60.8032 104.4 59.5143 102.69C58.7213 101.754 56.7668 99.5243 54.7811 100.417C53.0278 101.291 51.1911 101.985 49.2987 102.49C48.1123 102.734 45.0089 103.627 43.785 102.584C43.4109 102.284 43.1234 101.89 42.9522 101.442C42.781 100.995 42.7322 100.509 42.8109 100.036Z" fill="#F9B5B2"/>
<path d="M33.3508 110.084C33.3508 110.084 34.9618 111.888 36.2919 111.876C37.6219 111.863 38.315 110.927 38.7896 110.945C39.2641 110.964 39.7762 112.019 41.0125 111.832C41.8366 111.698 42.6211 111.385 43.3104 110.914C43.5727 110.745 43.9349 112.869 45.0963 112.506C46.2577 112.144 45.8956 112.943 45.8706 110.152C45.8456 107.361 45.9268 105.831 47.5877 104.158C49.2487 102.484 50.8223 99.7181 52.0586 99.4808C53.295 99.2435 56.3922 98.3256 58.0781 98.5754C59.7641 98.8252 62.1869 102.946 62.1869 102.946L62.88 112.388C62.88 112.388 65.3464 124.015 63.4107 124.92C61.475 125.825 54.6126 122.653 53.6572 123.172C52.7018 123.69 51.9587 124.664 48.8304 124.42C45.702 124.177 40.5567 123.927 39.0456 123.296C37.5345 122.666 34.2562 122.247 33.4258 120.218C32.5953 118.189 31.4151 113.861 31.4151 113.861L33.3508 110.084Z" fill="#B1C4D4"/>
<path d="M41.9742 66.8046C43.223 59.5175 45.7894 51.3812 53.7321 48.409C60.476 45.9113 63.2234 48.128 63.2234 48.128L63.2671 47.2413C63.2733 46.5868 63.1957 45.9341 63.0361 45.2993C63.0361 45.2993 64.285 45.9799 64.4473 46.3983L64.7096 47.1039L65.5713 46.1111L65.7149 47.6097C66.261 47.2286 66.9256 47.0558 67.5882 47.1226C68.1127 47.235 68.5998 48.2466 68.5998 48.2466C68.5998 48.2466 67.6506 48.0905 67.6194 48.7649C67.5882 49.4393 67.6194 49.1458 67.6194 49.1458C67.6194 49.1458 72.6148 47.797 76.2989 53.1858C80.9072 59.9234 83.4424 71.1069 81.2943 80.4483C80.7523 82.8734 79.7184 85.1615 78.2566 87.171C76.7948 89.1806 74.9363 90.8688 72.7959 92.1313C69.0493 94.4479 63.6793 95.703 57.3413 94.629C51.0971 93.58 44.041 87.904 42.1803 83.0209C40.4381 78.5251 40.8627 73.2112 41.9742 66.8046Z" fill="#E19C98"/>
<path d="M41.9117 66.1801C43.1606 58.8992 45.727 50.763 53.6697 47.7907C60.4135 45.293 63.161 47.5097 63.161 47.5097L63.2047 46.623C63.2066 45.9663 63.1269 45.3119 62.9674 44.6748C62.9674 44.6748 64.2163 45.3554 64.3786 45.7738C64.541 46.1922 64.6409 46.4856 64.6409 46.4856L65.5026 45.4866L65.6524 46.9914C66.1986 46.6103 66.8632 46.4375 67.5257 46.5044C68.0502 46.6168 68.5373 47.6221 68.5373 47.6221C68.5373 47.6221 67.5819 47.466 67.5569 48.1404C67.532 48.8148 67.5569 48.5275 67.5569 48.5275C67.5569 48.5275 72.5524 47.1788 76.2302 52.5676C80.8448 59.2989 83.3799 70.4886 81.2257 79.8238C80.683 82.2495 79.6488 84.5382 78.1872 86.5487C76.7255 88.5591 74.8673 90.2487 72.7272 91.5131C68.9806 93.8297 63.6106 95.0848 57.2726 94.0108C51.0284 92.9617 43.9724 87.2857 42.1116 82.3964C40.3881 77.8693 40.8003 72.5492 41.9117 66.1801Z" fill="#F9B5B2"/>
<path d="M57.154 64.1444C58.3403 64.1444 59.302 63.1827 59.302 61.9964C59.302 60.8101 58.3403 59.8484 57.154 59.8484C55.9677 59.8484 55.006 60.8101 55.006 61.9964C55.006 63.1827 55.9677 64.1444 57.154 64.1444Z" fill="#603913"/>
<path d="M64.6721 64.2318C65.8584 64.2318 66.8201 63.2701 66.8201 62.0838C66.8201 60.8975 65.8584 59.9358 64.6721 59.9358C63.4858 59.9358 62.524 60.8975 62.524 62.0838C62.524 63.2701 63.4858 64.2318 64.6721 64.2318Z" fill="#603913"/>
<path d="M57.4537 70.4823C59.9514 69.5769 60.7195 69.9578 62.6053 71.3877C64.491 72.8176 63.417 74.7783 65.284 75.2904C67.1511 75.8024 69.3241 75.5276 69.8486 75.5651C70.2813 75.5373 70.7125 75.638 71.0881 75.8547C71.4636 76.0714 71.7667 76.3942 71.9592 76.7827C72.4025 77.7319 72.8271 79.168 71.7781 80.1484C70.7291 81.1287 68.3125 82.9084 67.6381 84.0448C66.9638 85.1813 60.9131 94.7225 56.5109 97.1578C53.2014 99.0311 47.8376 99.8803 44.5094 98.9499C41.1812 98.0195 37.4346 95.7029 36.8664 95.4094C36.2982 95.1159 34.8183 95.2783 34.1938 94.504C33.5694 93.7297 32.945 92.4871 34.8745 91.6191C36.8039 90.7512 40.9002 89.315 42.992 88.2784C45.0838 87.2419 51.2407 83.8575 51.2407 83.8575C51.2407 83.8575 45.2899 84.4819 42.2115 84.5756C40.1321 84.6505 36.5916 84.7941 35.3428 85.0064C34.0939 85.2187 32.102 85.9243 30.4723 86.3864C29.6917 86.6112 27.8934 86.3365 28.3242 84.7692C28.7551 83.2019 29.0735 79.1993 33.5132 77.0075C37.9529 74.8158 40.5318 75.9647 43.5977 75.9273C46.6636 75.8898 47.2319 75.7961 49.3861 75.2342C51.5404 74.6722 53.0703 73.261 54.3066 72.3368C55.2357 71.5346 56.3018 70.9064 57.4537 70.4823Z" fill="#F5E58A"/>
<path d="M52.3584 83.6639C53.7793 83.4498 55.179 83.1134 56.5421 82.6586C58.3194 81.9445 60.0325 81.0796 61.6624 80.0735C62.8425 79.3304 63.3733 78.2002 63.929 78.6123C64.4848 79.0244 62.6427 81.647 61.4313 82.7273C59.2736 84.7383 56.9107 86.5172 54.3816 88.0349C52.0241 89.3515 49.5908 90.5275 47.0945 91.5567C44.3345 92.562 39.8886 93.6485 38.2589 94.1106C37.241 94.3978 35.2866 94.3479 34.7371 94.0107C34.1876 93.6735 33.7255 93.099 34.3812 92.5932C35.4427 91.7815 37.9404 91.2382 40.7503 89.9082C43.5602 88.5781 48.949 85.6808 49.7795 85.1438L52.3584 83.6639Z" fill="#D3CF58"/>
<defs>
<linearGradient id="paint0_linear_432_1148" x1="64.4161" y1="7.39659" x2="64.4161" y2="136.522" gradientUnits="userSpaceOnUse">
<stop stop-color="#C1DC89"/>
<stop offset="0.52" stop-color="#C7B2D6"/>
<stop offset="1" stop-color="#C7B2D6"/>
</linearGradient>
<linearGradient id="paint1_linear_432_1148" x1="0.986817" y1="71.9623" x2="127.839" y2="71.9623" gradientUnits="userSpaceOnUse">
<stop stop-color="#C1DC89"/>
<stop offset="0.55" stop-color="#C7B2D6"/>
</linearGradient>
</defs>
</svg>
