<svg width="135" height="135" viewBox="0 0 135 135" fill="none" xmlns="http://www.w3.org/2000/svg">
<path d="M134.997 67.5017C134.997 104.778 104.775 135 67.4983 135C62.2164 135.003 56.9524 134.386 51.8143 133.162C22.0981 126.093 0 99.3751 0 67.4983C0 30.2182 30.2182 1.95853e-05 67.4983 1.95853e-05C72.6459 -0.00389792 77.7771 0.579892 82.7922 1.74005C112.702 8.67982 134.997 35.4756 134.997 67.5017Z" fill="#E396B0"/>
<path d="M107.204 63.2618C108.55 63.1553 109.903 63.3595 111.158 63.8588C111.426 63.9727 111.717 64.0193 112.007 63.9943C112.296 63.9693 112.575 63.8735 112.819 63.7154C113.063 63.5572 113.264 63.3416 113.405 63.0875C113.546 62.8333 113.623 62.5484 113.628 62.2578V62.2273C113.628 56.2338 110.772 51.1969 107.044 51.1969C103.316 51.1969 100.301 56.0541 100.301 62.0509C100.301 62.3629 100.301 62.6682 100.325 62.9735C100.339 63.2667 100.426 63.5517 100.578 63.803C100.73 64.0543 100.942 64.264 101.195 64.4132C101.447 64.5625 101.733 64.6467 102.027 64.6583C102.32 64.6698 102.612 64.6084 102.875 64.4795C104.221 63.7861 105.694 63.3719 107.204 63.2618Z" fill="white"/>
<path d="M63.5433 61.5659C65.1617 61.4321 66.785 61.7565 68.2275 62.5021C68.4052 62.5897 68.602 62.6317 68.8 62.6241C68.9981 62.6165 69.191 62.5596 69.3615 62.4585C69.532 62.3574 69.6745 62.2154 69.7762 62.0454C69.8779 61.8753 69.9355 61.6825 69.9438 61.4845C69.9608 61.1657 69.9676 60.8468 69.9676 60.5212C69.9676 54.5278 67.1116 49.4908 63.3873 49.4908C59.6631 49.4908 56.6443 54.348 56.6443 60.3448C56.644 60.9852 56.6802 61.625 56.7528 62.2612C56.7753 62.4584 56.8468 62.6467 56.9608 62.8091C57.0748 62.9715 57.2277 63.1027 57.4055 63.1907C57.5833 63.2788 57.7803 63.3209 57.9785 63.3131C58.1768 63.3054 58.3699 63.2481 58.5403 63.1465C60.0618 62.2363 61.7752 61.695 63.5433 61.5659Z" fill="white"/>
<path d="M108.119 73.9462H56.0473C51.3192 73.9462 47.4862 77.7791 47.4862 82.5073V87.7714C47.4862 92.4996 51.3192 96.3325 56.0473 96.3325H108.119C112.848 96.3325 116.68 92.4996 116.68 87.7714V82.5073C116.68 77.7791 112.848 73.9462 108.119 73.9462Z" fill="white" stroke="#494949" stroke-width="2" stroke-miterlimit="10"/>
<path d="M116.68 83.7826H47.4862V84.461H116.68V83.7826Z" fill="#3B3B3B"/>
<path d="M81.2354 73.9462H80.557V96.3325H81.2354V73.9462Z" fill="#3B3B3B"/>
<path d="M93.7853 73.9462H93.1069V96.3325H93.7853V73.9462Z" fill="#3B3B3B"/>
<path d="M107.353 73.9462H106.674V96.3325H107.353V73.9462Z" fill="#3B3B3B"/>
<path d="M70.0422 73.9462H69.3638V96.3325H70.0422V73.9462Z" fill="#3B3B3B"/>
<path d="M58.1706 73.9462H57.4923V96.3325H58.1706V73.9462Z" fill="#3B3B3B"/>
<path d="M101.583 51.3428L111.128 41.8455C112.525 40.4617 110.365 38.301 108.971 39.6883L99.4225 49.1856C98.0285 50.5728 100.186 52.7335 101.583 51.3462V51.3428Z" fill="#363636"/>
<path d="M60.8604 43.0971L71.5753 51.8075C73.0881 53.0387 75.2589 50.8917 73.7326 49.6502L63.0007 40.9365C61.4913 39.7087 59.3171 41.8557 60.8435 43.0971H60.8604Z" fill="#363636"/>
<path d="M39.5153 75.303C43.9175 75.303 47.4862 72.114 47.4862 68.1801C47.4862 64.2462 43.9175 61.0571 39.5153 61.0571C35.1131 61.0571 31.5444 64.2462 31.5444 68.1801C31.5444 72.114 35.1131 75.303 39.5153 75.303Z" fill="#CC879E"/>
<path d="M124.651 75.303C129.054 75.303 132.622 72.114 132.622 68.1801C132.622 64.2462 129.054 61.0571 124.651 61.0571C120.249 61.0571 116.68 64.2462 116.68 68.1801C116.68 72.114 120.249 75.303 124.651 75.303Z" fill="#CC879E"/>
<path d="M67.5491 60.3619C70.1676 60.3619 70.171 56.2916 67.5491 56.2916C64.9272 56.2916 64.9272 60.3619 67.5491 60.3619Z" fill="#363636"/>
<path d="M104.293 61.878C106.912 61.878 106.915 57.8077 104.293 57.8077C101.671 57.8077 101.668 61.878 104.293 61.878Z" fill="#363636"/>
<path d="M68.3835 59.6157C69.6928 59.6157 69.6962 57.5806 68.3835 57.5806C67.0709 57.5806 67.0743 59.6157 68.3835 59.6157Z" fill="#363636"/>
<path d="M103.639 61.1317C104.948 61.1317 104.951 59.0966 103.639 59.0966C102.326 59.0966 102.326 61.1317 103.639 61.1317Z" fill="#363636"/>
<path d="M103.639 61.1317C104.948 61.1317 104.951 59.0966 103.639 59.0966C102.326 59.0966 102.326 61.1317 103.639 61.1317Z" fill="#363636"/>
<path d="M51.8143 133.162C22.0981 126.093 0 99.3751 0 67.4983C0 30.2182 30.2182 1.95853e-05 67.4983 1.95853e-05C72.6459 -0.00389792 77.7771 0.579892 82.7922 1.74005C70.1371 6.45475 55.9015 12.7501 47.6321 19.5338C30.6727 33.4405 17.7836 68.3768 24.2281 96.1902C27.7218 111.264 40.6787 124.343 51.8143 133.162Z" fill="#D98FA8"/>
</svg>
