<svg width="174" height="82" viewBox="0 0 174 82" fill="none" xmlns="http://www.w3.org/2000/svg">
<path d="M12.6669 82H145.374C145.374 82 174.991 50.4954 173.983 40.7123C172.975 30.9292 145.044 53.9991 145.044 53.9991C145.044 53.9991 159.345 39.1721 150.699 24.0009C142.053 8.82969 115.489 3.58834 104.668 14.4604C104.668 14.4604 102.822 0.620648 93.1797 1.28076C83.5371 1.94086 84.8414 20.0515 84.8414 20.0515C84.8414 20.0515 72.5332 -8.61521 47.5922 2.58969C22.6513 13.7946 38.9407 37.8406 38.9407 37.8406C38.9407 37.8406 23.6423 21.3661 16.9899 28.2887C10.3375 35.2114 22.3096 46.405 22.3096 46.405C22.3096 46.405 12.6669 36.8532 3.01863 44.7632C-6.62968 52.6732 10.0071 71.7881 10.0071 71.7881C10.0071 71.7881 -0.336062 68.166 0.0113684 72.1154C0.358799 76.0647 12.6669 82 12.6669 82Z" fill="#669873"/>
<path d="M173.983 40.7124C172.981 30.9349 145.044 53.9991 145.044 53.9991C145.044 53.9991 159.345 39.1721 150.699 24.0009C148.963 21.0456 146.658 18.4561 143.916 16.3787C144.348 25.1474 143.071 33.9166 140.157 42.2075C134.427 58.0331 109.401 66.3945 109.401 66.3945C112.716 59.2236 106.991 45.7111 106.991 45.7111C106.991 45.7111 106.69 61.0177 92.519 65.7965C78.3484 70.5752 54.8371 56.538 54.8371 56.538C59.365 65.8077 75.0507 72.674 75.0507 72.674C52.4392 78.0508 22.5944 82.0001 22.5944 82.0001H145.374C145.374 82.0001 174.98 50.5181 173.983 40.7124Z" fill="#5C8B68"/>
<path d="M15.3553 62.9303C19.1713 57.7566 26.8091 65.1193 29.4233 57.5535C32.0376 49.9876 25.8066 44.8535 33.8431 45.7054C41.8796 46.5573 49.9217 51.3474 49.9217 51.3474C49.9217 51.3474 45.502 43.5841 49.9217 37.0112C54.3415 30.4383 61.7799 39.6008 67.4072 32.035C73.0344 24.4691 66.8034 16.3109 74.8114 18.0994C82.8194 19.8879 87.0114 27.8825 87.0114 27.8825C87.0114 27.8825 93.7378 39.8265 93.5385 39.031C93.3391 38.2355 92.7354 26.6864 96.3521 25.2929C99.9688 23.8993 104.992 26.8895 104.992 26.8895C104.992 26.8895 112.431 35.6458 113.029 36.0464C113.627 36.447 110.819 22.9063 116.851 20.1192C120.131 18.6015 130.976 15.9667 140.174 13.8736C128.6 7.18223 112.488 6.58419 104.651 14.4378C104.651 14.4378 102.805 0.598092 93.1626 1.2582C83.52 1.91831 84.8413 20.0515 84.8413 20.0515C84.8413 20.0515 72.5332 -8.61521 47.5865 2.58969C22.6399 13.7946 38.9407 37.8406 38.9407 37.8406C38.9407 37.8406 23.6423 21.3661 16.9899 28.2887C10.6222 34.9124 21.3185 45.4572 22.2412 46.3429C21.3983 45.5418 12.2113 37.2256 3.01863 44.7576C-6.62398 52.6563 10.0071 71.7768 10.0071 71.7768C10.0071 71.7768 -0.336062 68.1547 0.0113684 72.1041C0.358799 76.0534 12.6669 81.9888 12.6669 81.9888C12.6669 81.9888 11.5392 68.0983 15.3553 62.9303Z" fill="#A0CDA6"/>
<path d="M70.0841 35.5217C70.0841 35.5217 68.5976 37.0507 68.6545 38.4104C68.7115 39.7701 70.0841 41.7956 70.0841 41.7956C70.0841 41.7956 71.4568 39.7532 71.5137 38.4104C71.5707 37.0676 70.0841 35.5217 70.0841 35.5217Z" fill="#A0CDA6"/>
<path d="M124.784 25.0728C124.784 25.0728 122.711 25.6369 122.051 26.8104C121.39 27.984 121.481 30.4495 121.481 30.4495C121.481 30.4495 123.719 29.4058 124.477 28.2774C125.234 27.149 124.784 25.0728 124.784 25.0728Z" fill="#A0CDA6"/>
<path d="M81.088 27.7583C81.088 27.7583 79.6014 29.2873 79.6584 30.647C79.7154 32.0067 81.088 34.0322 81.088 34.0322C81.088 34.0322 82.4606 31.9898 82.5176 30.647C82.5745 29.3042 81.088 27.7583 81.088 27.7583Z" fill="#A0CDA6"/>
<path d="M76.0132 30.2747C76.0132 30.2747 76.355 32.3679 77.4884 33.1408C78.6218 33.9138 81.088 34.0492 81.088 34.0492C81.088 34.0492 80.2678 31.736 79.2028 30.8728C78.1377 30.0096 76.0132 30.2747 76.0132 30.2747Z" fill="#A0CDA6"/>
<path d="M134.82 23.3577C134.82 23.3577 133.334 24.8866 133.391 26.2463C133.447 27.606 134.82 29.6315 134.82 29.6315C134.82 29.6315 136.193 27.5891 136.25 26.2463C136.307 24.9036 134.82 23.3577 134.82 23.3577Z" fill="#9AD12B"/>
<path d="M129.728 25.8684C129.728 25.8684 130.07 27.9672 131.203 28.7345C132.337 29.5018 134.803 29.6428 134.803 29.6428C134.803 29.6428 133.983 27.3296 132.918 26.4721C131.853 25.6145 129.728 25.8684 129.728 25.8684Z" fill="#A0CDA6"/>
<path d="M36.7365 55.0654C36.7365 55.0654 34.6975 55.7199 34.1051 56.9442C33.5128 58.1685 33.7463 60.6115 33.7463 60.6115C33.7463 60.6115 35.9277 59.4831 36.6226 58.2813C37.3174 57.0796 36.7365 55.0654 36.7365 55.0654Z" fill="#A0CDA6"/>
<path d="M56.5286 46.6758C56.5286 46.6758 56.2609 48.7859 57.1324 49.8409C58.0038 50.896 60.3333 51.714 60.3333 51.714C60.3333 51.714 60.1966 49.2654 59.422 48.1427C58.6474 47.0199 56.5286 46.6758 56.5286 46.6758Z" fill="#A0CDA6"/>
<path d="M103.113 32.9207C103.113 32.9207 101.017 33.3607 100.294 34.5173C99.5702 35.6739 99.5417 38.1056 99.5417 38.1056C99.5417 38.1056 101.82 37.1803 102.646 36.0858C103.472 34.9912 103.113 32.9207 103.113 32.9207Z" fill="#A0CDA6"/>
</svg>
