<svg width="174" height="82" viewBox="0 0 174 82" fill="none" xmlns="http://www.w3.org/2000/svg">
<path d="M161.333 82H28.626C28.626 82 -0.991013 50.4954 0.0171051 40.7123C1.02522 30.9292 28.9564 53.9991 28.9564 53.9991C28.9564 53.9991 14.6547 39.1721 23.3006 24.0009C31.9465 8.82969 58.5107 3.58834 69.3323 14.4604C69.3323 14.4604 71.1777 0.620648 80.8203 1.28076C90.4629 1.94086 89.1587 20.0515 89.1587 20.0515C89.1587 20.0515 101.467 -8.61521 126.408 2.58969C151.349 13.7946 135.059 37.8406 135.059 37.8406C135.059 37.8406 150.358 21.3661 157.01 28.2887C163.663 35.2114 151.69 46.405 151.69 46.405C151.69 46.405 161.333 36.8532 170.981 44.7632C180.63 52.6732 163.993 71.7881 163.993 71.7881C163.993 71.7881 174.336 68.166 173.989 72.1154C173.641 76.0647 161.333 82 161.333 82Z" fill="#669873"/>
<path d="M0.0170593 40.7124C1.01949 30.9349 28.9563 53.9991 28.9563 53.9991C28.9563 53.9991 14.6547 39.1721 23.3006 24.0009C25.0374 21.0456 27.3419 18.4561 30.084 16.3787C29.6523 25.1474 30.9286 33.9166 33.8431 42.2075C39.5729 58.0331 64.5993 66.3945 64.5993 66.3945C61.2844 59.2236 67.0085 45.7111 67.0085 45.7111C67.0085 45.7111 67.3104 61.0177 81.481 65.7965C95.6516 70.5752 119.163 56.538 119.163 56.538C114.635 65.8077 98.9493 72.674 98.9493 72.674C121.561 78.0508 151.406 82.0001 151.406 82.0001H28.626C28.626 82.0001 -0.979675 50.5181 0.0170593 40.7124Z" fill="#5C8B68"/>
<path d="M158.645 62.9303C154.829 57.7566 147.191 65.1193 144.577 57.5535C141.962 49.9876 148.193 44.8535 140.157 45.7054C132.12 46.5573 124.078 51.3474 124.078 51.3474C124.078 51.3474 128.498 43.5841 124.078 37.0112C119.658 30.4383 112.22 39.6008 106.593 32.035C100.966 24.4691 107.197 16.3109 99.1886 18.0994C91.1806 19.8879 86.9886 27.8825 86.9886 27.8825C86.9886 27.8825 80.2622 39.8265 80.4615 39.031C80.6609 38.2355 81.2646 26.6864 77.6479 25.2929C74.0312 23.8993 69.0077 26.8895 69.0077 26.8895C69.0077 26.8895 61.5693 35.6458 60.9712 36.0464C60.3732 36.447 63.1811 22.9063 57.1495 20.1192C53.8688 18.6015 43.0245 15.9667 33.8261 13.8736C45.3995 7.18223 61.5123 6.58419 69.3494 14.4378C69.3494 14.4378 71.1948 0.598092 80.8374 1.2582C90.48 1.91831 89.1587 20.0515 89.1587 20.0515C89.1587 20.0515 101.467 -8.61521 126.413 2.58969C151.36 13.7946 135.059 37.8406 135.059 37.8406C135.059 37.8406 150.358 21.3661 157.01 28.2887C163.378 34.9124 152.681 45.4572 151.759 46.3429C152.602 45.5418 161.789 37.2256 170.981 44.7576C180.624 52.6563 163.993 71.7768 163.993 71.7768C163.993 71.7768 174.336 68.1547 173.989 72.1041C173.641 76.0534 161.333 81.9888 161.333 81.9888C161.333 81.9888 162.461 68.0983 158.645 62.9303Z" fill="#A0CDA6"/>
<path d="M103.916 35.5217C103.916 35.5217 105.402 37.0507 105.345 38.4104C105.288 39.7701 103.916 41.7956 103.916 41.7956C103.916 41.7956 102.543 39.7532 102.486 38.4104C102.429 37.0676 103.916 35.5217 103.916 35.5217Z" fill="#A0CDA6"/>
<path d="M49.2155 25.0728C49.2155 25.0728 51.2887 25.6369 51.9494 26.8104C52.6101 27.984 52.519 30.4495 52.519 30.4495C52.519 30.4495 50.2806 29.4058 49.5231 28.2774C48.7656 27.149 49.2155 25.0728 49.2155 25.0728Z" fill="#A0CDA6"/>
<path d="M92.912 27.7583C92.912 27.7583 94.3986 29.2873 94.3416 30.647C94.2846 32.0067 92.912 34.0322 92.912 34.0322C92.912 34.0322 91.5394 31.9898 91.4824 30.647C91.4255 29.3042 92.912 27.7583 92.912 27.7583Z" fill="#A0CDA6"/>
<path d="M97.9868 30.2747C97.9868 30.2747 97.645 32.3679 96.5116 33.1408C95.3782 33.9138 92.912 34.0492 92.912 34.0492C92.912 34.0492 93.7322 31.736 94.7972 30.8728C95.8623 30.0096 97.9868 30.2747 97.9868 30.2747Z" fill="#A0CDA6"/>
<path d="M39.1799 23.3577C39.1799 23.3577 40.6664 24.8866 40.6095 26.2463C40.5525 27.606 39.1799 29.6315 39.1799 29.6315C39.1799 29.6315 37.8073 27.5891 37.7503 26.2463C37.6933 24.9036 39.1799 23.3577 39.1799 23.3577Z" fill="#9AD12B"/>
<path d="M44.2717 25.8684C44.2717 25.8684 43.93 27.9672 42.7966 28.7345C41.6632 29.5018 39.197 29.6428 39.197 29.6428C39.197 29.6428 40.0171 27.3296 41.0822 26.4721C42.1473 25.6145 44.2717 25.8684 44.2717 25.8684Z" fill="#A0CDA6"/>
<path d="M137.264 55.0654C137.264 55.0654 139.303 55.7199 139.895 56.9442C140.487 58.1685 140.254 60.6115 140.254 60.6115C140.254 60.6115 138.072 59.4831 137.377 58.2813C136.683 57.0796 137.264 55.0654 137.264 55.0654Z" fill="#A0CDA6"/>
<path d="M117.471 46.6758C117.471 46.6758 117.739 48.7859 116.868 49.8409C115.996 50.896 113.667 51.714 113.667 51.714C113.667 51.714 113.803 49.2654 114.578 48.1427C115.353 47.0199 117.471 46.6758 117.471 46.6758Z" fill="#A0CDA6"/>
<path d="M70.8872 32.9207C70.8872 32.9207 72.9832 33.3607 73.7065 34.5173C74.4298 35.6739 74.4583 38.1056 74.4583 38.1056C74.4583 38.1056 72.1801 37.1803 71.3542 36.0858C70.5284 34.9912 70.8872 32.9207 70.8872 32.9207Z" fill="#A0CDA6"/>
</svg>
