<svg width="135" height="135" viewBox="0 0 135 135" fill="none" xmlns="http://www.w3.org/2000/svg">
<path d="M135 67.5C135 104.778 104.781 135 67.5 135C63.9791 135.001 60.4634 134.728 56.9849 134.183C24.7071 129.125 2.18548e-05 101.196 2.18548e-05 67.5C-0.00711538 58.6338 1.73395 49.8531 5.12361 41.6604C8.51328 33.4677 13.485 26.0238 19.7544 19.7544C26.0238 13.485 33.4677 8.51328 41.6604 5.12361C49.8531 1.73395 58.6338 -0.00711538 67.5 2.18548e-05C104.781 2.18548e-05 135 30.2224 135 67.5Z" fill="#B0ABC9"/>
<path d="M98.8001 52.7269C97.516 52.0919 96.4636 51.0665 95.7925 49.7964C95.1213 48.5262 94.8654 47.0759 95.0611 45.6514L96.7009 42.0765C97.2509 40.8804 96.3186 39.0441 94.8096 39.6001C93.9957 39.9126 93.2523 40.3857 92.6233 40.9916C92.4222 41.0918 92.2441 41.233 92.1002 41.406C90.4872 43.2962 88.9044 45.237 87.4759 47.272C86.3693 48.8522 85.5813 50.6717 86.423 52.5686C88.274 56.7331 94.2764 56.0221 97.9551 55.8503C99.5076 55.793 100.363 53.5221 98.8001 52.7269Z" fill="white"/>
<path d="M63.8399 54.4955C66.2528 53.1478 67.6316 50.3277 67.2559 47.4199L65.7564 43.8451C65.2566 42.649 66.1011 40.8127 67.4799 41.3686C68.2376 41.6906 68.9176 42.1647 69.4758 42.7602C69.6634 42.864 69.8266 43.0052 69.9549 43.1746C71.4268 45.0648 72.8745 47.0055 74.1775 49.0406C75.1875 50.6208 75.901 52.4402 75.1392 54.3371C73.4502 58.5016 67.966 57.7907 64.6052 57.6188C63.1953 57.5616 62.4025 55.2907 63.8399 54.4955Z" fill="white"/>
<path d="M116.654 71.6953C115.979 69.2808 113.877 67.5562 111.384 67.8218C110.195 67.9506 109.089 68.5054 108.263 69.3878C107.864 69.8289 107.547 70.3394 107.325 70.8951C107.197 71.1986 106.95 72.6646 106.697 72.7922C106.444 72.9198 103.492 69.6051 103.107 69.2774C102.186 68.4875 101.039 67.9701 99.8345 68.3875C98.63 68.8048 97.9384 69.9741 97.3075 71.0503C96.7339 72.0368 96.1671 73.0267 95.5969 74.0167C95.0162 73.4647 94.4937 72.852 94.0381 72.1886C93.2794 71.1297 92.2675 70.2876 91.0994 69.743C88.8861 68.8221 86.8044 69.8293 85.6403 71.8505C85.1174 72.7611 84.9318 74.0926 84.2334 74.8824C83.535 75.6723 83.2212 75.2929 82.4654 74.7686C81.9526 74.4237 81.4532 74.027 80.9708 73.6614C78.889 72.1161 76.7736 70.1569 74.0913 71.5918C72.1412 72.6266 70.6667 75.1998 69.7288 77.1728L69.5668 77.2728L69.3947 77.1452C68.8046 76.485 68.1771 75.8607 67.5154 75.2757C66.6922 74.4685 65.8285 73.5821 64.7252 73.2061C62.1947 72.3334 60.7001 74.4375 59.364 76.2898C58.9017 76.9313 58.4631 77.5867 58.0414 78.2558C57.9975 78.3248 57.957 78.3972 57.9132 78.4697C57.1608 77.4763 55.0655 75.3653 54.7855 75.048C54.5217 74.7784 54.178 74.6057 53.8081 74.5571C53.4381 74.5084 53.0628 74.5864 52.7409 74.779C50.3217 76.3296 48.5638 78.7562 47.8183 81.574C47.2447 83.7195 50.5174 84.6335 51.0741 82.4915C51.4527 80.9978 52.2474 79.6485 53.3617 78.6076C54.0938 79.4665 54.826 80.3323 55.5817 81.1532C56.3375 81.9741 57.2451 82.733 58.4631 82.5329C59.7587 82.2984 60.3154 81.0359 60.9565 80.015C61.2691 79.5114 61.5953 79.017 61.9349 78.5318C62.215 78.1282 62.91 76.7589 63.3925 76.614C64.3675 76.3277 65.9229 78.5318 66.537 79.1457C67.3468 79.9494 68.1362 80.9359 69.3407 81.0325C71.5945 81.2153 72.9812 78.5628 73.8922 76.8934C74.4894 75.7862 75.3565 74.027 76.8073 74.8686C78.0152 75.5585 79.1353 76.5933 80.2622 77.4211C82.1618 78.8008 84.3751 79.6597 86.2982 77.766C87.0281 76.9617 87.5937 76.0165 87.9616 74.9859C88.4475 73.8166 88.8253 72.4369 90.2626 73.2302C91.3086 73.8063 91.9496 75.1756 92.7324 76.0448C93.5454 76.9949 94.6184 77.6738 95.8128 77.9937C96.1717 78.088 96.5509 78.0618 96.8941 77.9189C97.2374 77.7761 97.5266 77.5241 97.7191 77.2003L99.595 73.9408C99.8692 73.3759 100.183 72.8318 100.533 72.3127C100.988 71.754 100.351 71.7436 101.063 72.0989C101.96 72.5438 102.881 73.889 103.617 74.6099C104.292 75.2584 104.926 76.0138 105.823 76.3104C107.591 76.8968 109.157 75.6585 109.838 74.0512C110.236 73.1061 110.267 71.7402 111.397 71.3745C112.369 71.0607 113.148 71.7539 113.401 72.6749C113.985 74.7479 117.244 73.8408 116.654 71.6953Z" fill="#363636"/>
<path d="M105.293 33.8236C103.355 34.6661 101.223 33.88 99.3015 33.2878C97.2514 32.6503 95.2552 31.8344 93.3335 30.8484C91.4022 29.8649 89.7019 32.9035 91.6432 33.8906C94.0059 35.1181 96.4709 36.114 99.0069 36.8658C101.323 37.5391 103.86 38.23 106.18 37.2183C108.148 36.3582 107.288 32.9564 105.293 33.8236Z" fill="#363636"/>
<path d="M70.3862 31.3836C66.9989 35.8525 61.5545 38.0939 56.5559 40.1407C54.5365 40.9677 55.4211 44.3316 57.4679 43.4906C63.423 41.0581 69.3302 38.4344 73.3483 33.1385C74.6957 31.3662 71.713 29.6322 70.3862 31.3836Z" fill="#363636"/>
<path d="M89.3129 54.8254C92.0613 54.8254 92.0649 50.6987 89.3129 50.6987C86.5609 50.6987 86.5609 54.8254 89.3129 54.8254Z" fill="#363636"/>
<path d="M72.2162 54.8253C74.9655 54.8253 74.969 51.2882 72.2162 51.2882C69.4633 51.2882 69.4668 54.8253 72.2162 54.8253Z" fill="#363636"/>
<path d="M56.5939 134.41C24.5375 129.346 0 101.375 0 67.6303C0.000289935 53.4689 4.40953 39.6648 12.6058 28.1654C20.8021 16.666 32.3717 8.05153 45.6827 3.53711C38.0055 11.3093 31.1468 22.3934 28.5024 38.077C23.0182 70.4294 39.4069 115.608 56.5939 134.41Z" fill="#A49EBD"/>
</svg>
