<svg width="195" height="286" viewBox="0 0 195 286" fill="none" xmlns="http://www.w3.org/2000/svg">
<g style="mix-blend-mode:multiply">
<path d="M90.9776 285.59C129.073 285.59 159.955 280.981 159.955 275.295C159.955 269.609 129.073 265 90.9776 265C52.8823 265 22 269.609 22 275.295C22 280.981 52.8823 285.59 90.9776 285.59Z" fill="#EDEDED"/>
</g>
<path d="M57.3888 111.472C57.3888 111.472 49.0913 114.163 44.3499 140.691C40.0471 164.73 35.6139 196.07 34.7011 203.846C33.7884 211.622 35.1634 215.285 31.5007 221.686C27.8379 228.087 18.687 235.412 18.687 235.412C18.687 235.412 12.7603 241.339 13.1988 245.476C13.6374 249.613 21.4963 253.714 25.0524 251.877C27.6658 250.473 30.1182 248.787 32.366 246.851C32.366 246.851 29.6278 252.778 29.6278 255.077C29.6278 257.377 30.0783 260.115 34.2033 261.49C38.3283 262.865 45.1796 250.964 45.1796 250.964C45.1796 250.964 43.8046 260.34 48.8424 261.632C53.8801 262.924 56.156 256.037 56.156 251.912C56.156 247.787 55.7056 242.311 57.9933 239.111C60.281 235.91 68.5074 235.448 73.9956 235.898C79.4837 236.349 84.9838 242.631 96.9203 242.631C112.934 242.631 123.342 242.145 137.139 221.224C150.261 201.345 150.972 177.247 149.657 159.384C148.056 137.68 145.022 124.866 143.647 121.204C142.272 117.541 127.988 102.594 105.111 99.9384C82.2338 97.2832 63.5289 103.008 57.3888 111.472Z" fill="#CADDDF"/>
<path d="M97.8923 2.49058C121.801 1.67269 137.495 12.4001 147.31 31.0339C157.124 49.6676 157.433 70.838 154.588 88.322C151.79 105.13 149.68 112.314 148.91 116.77C148.248 121.088 147.852 125.443 147.725 129.809C147.725 129.809 147.724 138.996 137.459 139.292C126.625 139.577 125.345 126.135 125.345 126.135C125.345 126.135 126.436 139.873 117.462 139.826C102.053 139.754 104.767 128.209 104.767 128.209C104.767 128.209 104.637 141.888 93.4235 140.371C82.5775 138.901 84.5096 127.581 84.5096 127.581C84.5096 127.581 83.4902 140.821 71.8027 139.019C62.8651 137.633 65.5914 126.052 65.5914 126.052C65.5914 126.052 61.3834 139.316 51.2723 135.772C43.7691 133.14 47.3844 124.072 48.1193 116.806C49.1861 106.375 47.4318 95.4696 46.5784 84.0191C45.8553 74.2755 43.2475 51.9435 50.5019 36.0361C57.7562 20.1286 66.5515 3.56925 97.8923 2.49058Z" fill="#A2B3C2"/>
<path d="M130.466 174.734C123.591 163.355 127.763 157.855 134.484 151.703C141.205 145.551 152.264 144.437 160.562 137.87C169.452 130.829 176.185 124.653 178.342 122.579C180.215 120.848 187.517 116.972 192.104 122.579C196.691 128.185 194.214 134.243 189.117 139.849C184.02 145.456 175.794 149.593 172.735 151.122C169.677 152.651 181.033 147.708 181.91 152.651C183.57 162.383 161.878 166.875 161.878 166.875C161.878 166.875 176.754 162.134 178.793 166.757C180.831 171.38 177.323 172.885 171.68 175.232C165.434 177.603 158.935 179.246 152.312 180.127C147.796 180.661 134.709 181.728 130.466 174.734Z" fill="#B1C4D4"/>
<path d="M64.6194 172.115C71.4945 160.735 67.322 155.235 60.6011 149.083C53.8801 142.931 42.8208 141.817 34.5233 135.25C25.6332 128.209 18.9004 122.033 16.743 119.959C14.8702 118.228 7.5684 114.352 2.98109 119.959C-1.60623 125.566 0.871166 131.623 5.96818 137.23C11.0652 142.836 19.2915 146.973 22.3498 148.502C25.408 150.031 14.0523 145.088 13.1751 150.031C11.5156 159.763 33.2076 164.256 33.2076 164.256C33.2076 164.256 18.3314 159.514 16.2926 164.125C14.2538 168.736 17.7624 170.265 23.4047 172.612C29.6513 174.983 36.1504 176.626 42.7734 177.508C47.2896 178.065 60.3759 179.132 64.6194 172.115Z" fill="#B1C4D4"/>
<path d="M97.9871 0.949634C121.884 0.119887 137.59 10.8473 147.393 29.4929C157.195 48.1385 157.527 69.2971 154.623 86.781C151.826 103.589 149.716 110.761 148.945 115.229C148.263 119.546 147.843 123.901 147.689 128.268C147.689 128.268 147.689 137.455 137.424 137.751C126.59 138.036 125.309 124.606 125.309 124.606C125.309 124.606 126.412 138.332 117.439 138.296C102.029 138.225 104.744 126.68 104.744 126.68C104.744 126.68 104.613 140.359 93.3879 138.842C82.5538 137.372 84.4741 126.052 84.4741 126.052C84.4741 126.052 83.4665 139.174 71.7789 137.384C62.8414 135.997 65.5677 124.416 65.5677 124.416C65.5677 124.416 61.3478 137.68 51.2486 134.136C43.7335 131.504 47.3488 122.436 48.0956 115.17C49.1506 104.751 47.4081 93.8339 46.5547 82.3952C45.8316 72.6398 43.2238 50.3077 50.4782 34.4121C57.7325 18.5166 66.6464 2.0283 97.9871 0.949634Z" fill="#CADDDF"/>
<path d="M70.2854 224.661C77.3975 223.772 81.4988 227.21 81.2381 232.556C80.9773 237.902 78.8674 241.481 78.7962 244.54C78.7251 247.598 78.9503 253.205 79.9816 256.002C81.0128 258.799 84.6519 259.807 85.8372 260.08C90.4245 261.135 91.0646 266.066 91.0646 266.066C91.9536 268.614 89.8793 271.886 87.6271 271.803C83.9288 271.672 79.7208 267.595 79.7208 267.595C79.7208 267.595 81.8663 275.548 77.3501 276.26C70.8544 277.279 68.6852 268.614 68.6852 268.614C68.6852 268.614 65.8522 270.985 63.2089 273.083C60.9567 274.896 55.8122 274.351 54.5439 271.803C53.2756 269.254 54.2831 265.437 56.8317 263.399C59.3802 261.36 63.7186 261.099 64.4772 258.041C65.2358 254.983 65.2477 240.711 63.9675 238.162C62.6873 235.614 62.1302 225.704 70.2854 224.661Z" fill="#F7B0BB"/>
<path d="M116.206 224.661C109.094 223.772 104.993 227.21 105.253 232.556C105.514 237.902 107.624 241.481 107.695 244.54C107.766 247.598 107.541 253.205 106.51 256.002C105.479 258.799 101.863 259.807 100.654 260.08C96.0668 261.135 95.4267 266.066 95.4267 266.066C94.5377 268.614 96.6121 271.886 98.8643 271.803C102.563 271.672 106.771 267.595 106.771 267.595C106.771 267.595 104.625 275.548 109.141 276.26C115.637 277.279 117.806 268.614 117.806 268.614C117.806 268.614 120.651 270.985 123.283 273.083C125.535 274.896 130.679 274.351 131.947 271.803C133.216 269.254 132.208 265.437 129.66 263.399C127.111 261.36 122.773 261.099 122.014 258.041C121.256 254.983 121.244 240.711 122.524 238.162C123.804 235.614 124.361 225.704 116.206 224.661Z" fill="#F7B0BB"/>
<path d="M89.7963 78.5309C87.5078 81.9049 86.0943 85.795 85.6831 89.8511C85.5965 92.42 86.0617 94.9777 87.0473 97.3517C88.0328 99.7257 89.5159 101.861 91.3965 103.613C94.2651 106.292 103.523 109.03 104.269 109.398C106.52 110.378 108.847 111.171 111.227 111.768C113.669 112.42 114.629 94.7347 113.195 89.3769C111.761 84.0191 108.88 78.1279 105.407 76.5158C101.934 74.9038 92.3092 73.7777 89.7963 78.5309Z" fill="#F7B0BB"/>
<path d="M90.8394 82.5493C90.8394 82.5493 88.7769 91.2024 92.0959 96.0267C95.4149 100.851 103.191 102.274 105.265 104.407C108.335 107.572 110.007 110.559 112.377 110.678C114.748 110.796 117.794 103.447 117.901 95.3985C118.094 90.8529 116.647 86.3893 113.823 82.8219C113.823 82.8219 110.433 74.9156 104.115 72.616C97.7974 70.3164 95.1423 71.3477 93.5776 73.8014C92.0801 76.5011 91.1484 79.4776 90.8394 82.5493Z" fill="#F48593"/>
<path d="M95.6401 108.757C95.6401 108.757 104.103 101.894 110.943 99.3695C117.782 96.8447 126.566 94.6281 126.566 94.6281C126.566 94.6281 126.637 98.7057 131.497 103.21C136.357 107.714 149.005 109.315 149.005 109.315C148.883 105.932 148.235 102.588 147.084 99.405C145.769 96.2994 134.543 91.5817 134.543 91.5817C134.543 91.5817 141.252 88.2035 144.323 84.4696C147.393 80.7357 148.116 71.0633 148.116 71.0633C148.116 71.0633 148.293 68.0999 147.179 67.8391C146.065 67.5783 139.51 68.0762 136.001 70.8143C132.493 73.5525 131.876 74.7497 129.79 79.337C128.502 82.2671 127.613 85.3569 127.147 88.5235C121.78 89.6625 116.506 91.2039 111.37 93.1345C101.448 97.1292 91.7758 104.692 91.7758 104.692C91.7758 104.692 88.2198 106.849 89.7844 108.9C92.3092 112.266 95.6401 108.757 95.6401 108.757Z" fill="#7FC2A0"/>
<path d="M92.3093 81.5655C92.3093 81.5655 90.6972 90.3133 94.2769 94.9599C97.8567 99.6065 105.668 100.626 107.849 102.641C111.085 105.64 112.934 108.568 115.222 108.568C117.51 108.568 120.26 101.064 119.964 93.0278C119.914 88.4791 118.231 84.0997 115.222 80.6883C115.222 80.6883 111.429 72.9598 104.993 70.9921C98.5561 69.0244 95.9601 70.1861 94.5377 72.6872C93.1153 75.1883 92.6412 78.3176 92.3093 81.5655Z" fill="#F7B0BB"/>
<path d="M101.922 61.3315C109.793 61.8294 115.056 62.9199 117.261 71.6559C119.276 79.6452 112.768 81.2099 109.793 80.9135C105.893 80.5342 102.681 75.6032 102.681 75.6032C102.681 75.6032 101.757 78.9221 96.458 81.2454C91.1595 83.5687 83.6562 80.4749 84.1066 73.4102C84.557 66.3455 93.2931 60.7981 101.922 61.3315Z" fill="#B1C4D4"/>
<path d="M93.1746 75.6031C94.8832 75.6031 96.2683 74.218 96.2683 72.5094C96.2683 70.8007 94.8832 69.4156 93.1746 69.4156C91.4659 69.4156 90.0808 70.8007 90.0808 72.5094C90.0808 74.218 91.4659 75.6031 93.1746 75.6031Z" fill="#603913"/>
<path d="M110.659 74.7497C112.367 74.7497 113.752 73.3645 113.752 71.6559C113.752 69.9473 112.367 68.5621 110.659 68.5621C108.95 68.5621 107.565 69.9473 107.565 71.6559C107.565 73.3645 108.95 74.7497 110.659 74.7497Z" fill="#603913"/>
<path d="M121.267 38.5609C130.312 46.7635 138.692 40.8012 139.048 40.5404L139.877 41.6546C139.783 41.7257 130.229 48.5771 120.331 39.5921L121.267 38.5609Z" fill="#603913"/>
<path d="M137.436 42.2117C138.374 43.4449 139.522 44.504 140.826 45.3411L140.114 46.5264C138.633 45.5403 137.334 44.3051 136.274 42.8755L137.436 42.2117Z" fill="#603913"/>
<path d="M134.946 43.729C135.47 45.1851 136.239 46.5404 137.222 47.7355L136.179 48.6601C135.064 47.2726 134.201 45.6998 133.631 44.0135L134.946 43.729Z" fill="#603913"/>
<path d="M131.426 44.1083C131.628 45.6447 132.089 47.1356 132.789 48.5178L131.604 49.1935C130.81 47.5991 130.3 45.8781 130.098 44.1083H131.426Z" fill="#603913"/>
<path d="M86.3232 38.5609C77.279 46.7635 68.8867 40.8012 68.5429 40.5404L67.7251 41.6546C67.8199 41.7257 77.362 48.5771 87.2596 39.5921L86.3232 38.5609Z" fill="#603913"/>
<path d="M70.1432 42.2117C69.2074 43.4432 68.0642 44.5021 66.7649 45.3411L67.4761 46.5264C68.9526 45.5341 70.251 44.2999 71.3167 42.8755L70.1432 42.2117Z" fill="#603913"/>
<path d="M72.6324 43.729C72.1341 45.1817 71.3882 46.5372 70.4277 47.7355L71.4589 48.6601C72.5658 47.2708 73.4204 45.6981 73.9837 44.0135L72.6324 43.729Z" fill="#603913"/>
<path d="M76.1529 44.1083C75.9585 45.6447 75.5014 47.1363 74.8016 48.5178L75.987 49.1935C76.8008 47.6034 77.3265 45.8818 77.5398 44.1083H76.1529Z" fill="#603913"/>
</svg>
