<svg width="1758" height="1109" viewBox="0 0 1758 1109" fill="#EDF5EC" xmlns="http://www.w3.org/2000/svg">
<path d="M1642.7 337.589C1709.89 313.636 1758 249.367 1758 173.814C1758 77.835 1680.35 0 1584.55 0C1512.06 0 1449.98 44.5629 1424.05 107.836C1398.71 93.1033 1370.05 85.0402 1340.76 84.3978C1311.46 83.7553 1282.48 90.5544 1256.52 104.161C1236.97 78.4122 1211.51 57.7688 1182.3 43.9832C1153.09 30.1977 1121 23.6769 1088.74 24.9744C1056.48 26.2719 1025.01 35.3494 996.997 51.4364C968.985 67.5234 945.26 90.145 927.835 117.381C906.142 112.462 883.559 113.137 862.196 119.341C840.834 125.545 821.391 137.077 805.685 152.858C770.021 77.1991 693.173 24.8357 604.098 24.8357C513.141 24.8357 434.925 79.4601 400.326 157.747C359.628 104.112 295.267 69.4763 222.86 69.4763C99.7932 69.4763 0.0504295 169.448 0.0504295 292.75C0.00326568 323.509 6.3155 353.945 18.5892 382.138C30.863 410.331 48.832 435.671 71.3637 456.56C35.246 490.118 11.2344 534.717 3.07827 583.393C-5.07783 632.068 3.08071 682.08 26.28 725.619C8.97483 757.997 -0.0538695 794.167 0.00107842 830.897C0.00107842 954.22 99.765 1054.17 222.811 1054.17C251.277 1054.21 279.485 1048.76 305.899 1038.12C321.999 1060.11 343.043 1077.99 367.325 1090.3C391.607 1102.61 418.442 1109.02 445.656 1109C514.918 1109 574.689 1068.31 602.484 1009.49H604.112C649.315 1009.56 693.459 995.787 730.635 970.019C743.213 1029.56 795.961 1074.24 859.124 1074.24C931.664 1074.24 990.469 1015.32 990.469 942.626C990.469 939.849 990.37 937.1 990.208 934.366C1010.02 946.858 1031.87 955.755 1054.77 960.65C1054.65 962.897 1054.6 965.158 1054.6 967.433C1054.6 1040.12 1113.4 1099.05 1185.94 1099.05C1252.71 1099.05 1307.84 1049.13 1316.19 984.496C1330.74 1013.01 1352.86 1036.93 1380.12 1053.64C1407.38 1070.35 1438.71 1079.18 1470.67 1079.18C1566.45 1079.18 1644.12 1001.37 1644.12 905.361C1644.12 895.521 1643.29 885.698 1641.65 875.997C1709.39 852.348 1757.99 787.789 1757.99 711.841C1758.04 673.797 1745.58 636.795 1722.53 606.563C1745.58 576.332 1758.04 539.33 1757.99 501.285C1757.99 425.817 1709.88 361.541 1642.7 337.589Z"/>
</svg>
