<svg width="239" height="139" viewBox="0 0 239 139" fill="none" xmlns="http://www.w3.org/2000/svg">
<path d="M107.194 40.9665C107.402 41.0572 107.625 41.1518 107.862 41.2484C107.502 41.1755 107.274 41.0966 107.214 41.0177C107.201 41.0034 107.195 40.9853 107.194 40.9665V40.9665Z" fill="#CDAA58"/>
<path d="M131.857 40.9665C131.858 40.983 131.852 40.9992 131.841 41.0118V41.0118C131.686 41.1208 131.506 41.1886 131.318 41.209L131.198 41.2366L131.661 41.0394C131.71 41.0118 131.757 40.9842 131.804 40.9526L131.841 40.9014C131.848 40.9105 131.853 40.921 131.856 40.9322C131.859 40.9434 131.859 40.9551 131.857 40.9665Z" fill="#CDAA58"/>
<path d="M209.075 0H29.1447C25.3226 0 22.2242 3.11648 22.2242 6.96084V126.96C22.2242 130.804 25.3226 133.92 29.1447 133.92H209.075C212.897 133.92 215.996 130.804 215.996 126.96V6.96084C215.996 3.11648 212.897 0 209.075 0Z" fill="#303643"/>
<path d="M239 130.785H0V135.096H239V130.785Z" fill="#F0EFEF"/>
<path d="M171.263 135.098H0.00196075C0.00196075 135.098 5.71679 139 16.5583 139H222.446C233.287 139 239 135.098 239 135.098H171.263Z" fill="url(#paint0_linear_343_1154)"/>
<path d="M209.234 7.60369H30.0662C29.5432 7.60369 29.1192 8.03011 29.1192 8.55612V121.44C29.1192 121.966 29.5432 122.393 30.0662 122.393H209.234C209.757 122.393 210.181 121.966 210.181 121.44V8.55612C210.181 8.03011 209.757 7.60369 209.234 7.60369Z" fill="url(#paint1_radial_343_1154)"/>
<path d="M139.542 130.785C139.365 131.75 138.857 132.623 138.107 133.251C137.358 133.879 136.413 134.223 135.437 134.224H104.128C103.153 134.221 102.209 133.876 101.459 133.248C100.71 132.62 100.202 131.749 100.022 130.785H139.542Z" fill="#CCCCCB"/>
<path d="M51.6473 75.1752H189.2V79.397H49.8554V76.9795C49.8554 76.5013 50.0441 76.0426 50.3801 75.7043C50.7161 75.366 51.1719 75.1757 51.6473 75.1752V75.1752Z" fill="#C5A14B"/>
<path d="M133.927 75.1752H189.409C189.707 75.1752 189.993 75.2942 190.204 75.5061C190.414 75.718 190.533 76.0054 190.533 76.3051V78.2671C190.533 78.5668 190.414 78.8542 190.204 79.0661C189.993 79.278 189.707 79.397 189.409 79.397H133.927V75.1752Z" fill="#EDC257"/>
<path d="M49.8554 95.5174H189.2V99.7393H51.8884C51.3487 99.7393 50.8311 99.5236 50.4495 99.1397C50.0678 98.7559 49.8534 98.2353 49.8534 97.6924V95.5233L49.8554 95.5174Z" fill="#DDB44C"/>
<path d="M133.927 95.5174H189.431C189.722 95.5174 190 95.6335 190.206 95.8402C190.411 96.0469 190.527 96.3273 190.527 96.6197V98.635C190.527 98.9274 190.411 99.2077 190.206 99.4145C190 99.6212 189.722 99.7373 189.431 99.7373H133.927V95.5174Z" fill="#EDC257"/>
<path d="M133.927 79.397H49.8554V95.5154H133.927V79.397Z" fill="#DDB44C"/>
<path d="M138.319 79.397H133.927V95.5154H138.319V79.397Z" fill="#EDC257"/>
<path d="M189.198 79.397H138.317V95.5154H189.198V79.397Z" fill="#DFD5CE"/>
<path opacity="0.1" d="M189.198 79.397H138.317V82.8636H189.198V79.397Z" fill="black"/>
<path d="M57.1778 59.53L184.573 59.53V57.5897L57.1778 57.5897V59.53Z" fill="#9756A2"/>
<path d="M132.469 59.53L56.4368 59.53C56.2688 59.53 56.1078 59.4629 55.989 59.3434C55.8703 59.224 55.8035 59.062 55.8035 58.8931V58.2266C55.8035 58.0577 55.8703 57.8957 55.989 57.7762C56.1078 57.6568 56.2688 57.5897 56.4368 57.5897L132.469 57.5897V59.53Z" fill="#A668AB"/>
<path d="M57.1857 75.1732L184.575 75.1732V73.2328L57.1857 73.2328V75.1732Z" fill="#9F5BA4"/>
<path d="M132.469 75.1732L56.325 75.1732C56.1867 75.1732 56.0541 75.1179 55.9563 75.0196C55.8585 74.9212 55.8035 74.7878 55.8035 74.6486V73.7553C55.8035 73.6162 55.8585 73.4828 55.9563 73.3844C56.0541 73.2861 56.1867 73.2308 56.325 73.2308L132.469 73.2308V75.1712V75.1732Z" fill="#A668AB"/>
<path d="M132.463 73.2328H184.573V59.534L132.463 59.534V73.2328Z" fill="#9F5BA4"/>
<path d="M130.363 73.2328H132.465V59.534H130.363V73.2328Z" fill="#A668AB"/>
<path d="M57.1916 73.2328L130.361 73.2328V59.5182L57.1916 59.5182V73.2328Z" fill="#DFD5CE"/>
<path opacity="0.1" d="M57.1916 63.5428L130.361 63.5428V59.5182L57.1916 59.5182V63.5428Z" fill="black"/>
<path d="M116.583 67.0864H125.17V81.3196L120.876 75.2225L116.583 81.016V67.0864Z" fill="#EE2040"/>
<path d="M68.1331 29.973H174V33.4653H66.6568V31.4559C66.6594 31.0631 66.8158 30.6871 67.0921 30.4095C67.3685 30.1319 67.7425 29.9751 68.1331 29.973V29.973Z" fill="#C47829"/>
<path d="M128.277 29.973H174.172C174.419 29.973 174.655 30.0715 174.829 30.2468C175.004 30.4221 175.102 30.6598 175.102 30.9077V32.5306C175.102 32.7785 175.004 33.0162 174.829 33.1915C174.655 33.3668 174.419 33.4653 174.172 33.4653H128.277V29.973Z" fill="#ED9022"/>
<path d="M66.6568 54.0935H174.004V57.5798H68.333C67.8869 57.5798 67.4591 57.4015 67.1436 57.0842C66.8282 56.767 66.6509 56.3366 66.6509 55.8879V54.0875L66.6568 54.0935Z" fill="#DC8627"/>
<path d="M128.277 54.0935H174.196C174.437 54.0935 174.667 54.1896 174.838 54.3609C175.008 54.5321 175.104 54.7643 175.104 55.0065V56.6747C175.104 56.9168 175.008 57.1491 174.838 57.3203C174.667 57.4915 174.437 57.5877 174.196 57.5877H128.277V54.0935Z" fill="#ED9022"/>
<path d="M128.279 33.4574H66.6509V54.0935H128.279V33.4574Z" fill="#DC8627"/>
<path d="M131.91 33.4574H128.277V54.0935H131.91V33.4574Z" fill="#ED9022"/>
<path d="M174.004 33.4574H131.91V54.0935H174.004V33.4574Z" fill="#DFD5CE"/>
<path opacity="0.1" d="M174.004 33.4574H131.91V36.3246H174.004V33.4574Z" fill="black"/>
<path d="M82.8603 29.9652H78.806V57.5897H82.8603V29.9652Z" fill="#B87126"/>
<path d="M89.4927 29.9652H85.4384V57.5897H89.4927V29.9652Z" fill="#B87126"/>
<path d="M109.95 29.9652H105.896V57.5897H109.95V29.9652Z" fill="#B87126"/>
<path d="M116.583 29.9652H112.528V57.5897H116.583V29.9652Z" fill="#B87126"/>
<path d="M41.7762 101.684L198.602 101.684V99.7432L41.7762 99.7432V101.684Z" fill="#4B98C6"/>
<path d="M135.856 101.684L41.0273 101.684C40.8593 101.684 40.6983 101.616 40.5795 101.497C40.4608 101.378 40.394 101.216 40.394 101.047V100.372C40.394 100.203 40.4608 100.041 40.5795 99.9219C40.6983 99.8024 40.8593 99.7353 41.0273 99.7353L135.856 99.7353V101.676V101.684Z" fill="#5FB0E2"/>
<path d="M41.7801 122.327L198.602 122.327V120.387L41.7801 120.387V122.327Z" fill="#4FA1D9"/>
<path d="M135.856 122.337L40.9194 122.337C40.7811 122.337 40.6485 122.282 40.5507 122.184C40.4529 122.085 40.398 121.952 40.398 121.813V120.92C40.398 120.78 40.4529 120.647 40.5507 120.549C40.6485 120.45 40.7811 120.395 40.9194 120.395L135.856 120.395V122.337Z" fill="#5FB0E2"/>
<path d="M135.854 120.385L198.602 120.385V101.686H135.854V120.385Z" fill="#4FA1D9"/>
<path d="M133.751 120.385H135.852V101.686H133.751V120.385Z" fill="#5FB0E2"/>
<path d="M41.7879 120.385L133.751 120.385V101.67L41.7879 101.67V120.385Z" fill="#DFD5CE"/>
<path opacity="0.1" d="M41.7879 105.696L133.751 105.696V101.672L41.7879 101.672V105.696Z" fill="black"/>
<path d="M148.386 99.7412H144.332V122.327H148.386V99.7412Z" fill="#4790BB"/>
<path d="M155.018 99.7412H150.964V122.327H155.018V99.7412Z" fill="#4790BB"/>
<path d="M161.727 99.7412H157.673V122.327H161.727V99.7412Z" fill="#4790BB"/>
<path d="M177.591 99.7412H173.537V122.327H177.591V99.7412Z" fill="#4790BB"/>
<path d="M184.224 99.7412H180.169V122.327H184.224V99.7412Z" fill="#4790BB"/>
<path d="M190.935 99.7412H186.88V122.327H190.935V99.7412Z" fill="#4790BB"/>
<defs>
<linearGradient id="paint0_linear_343_1154" x1="119.578" y1="114.962" x2="119.311" y2="183.691" gradientUnits="userSpaceOnUse">
<stop stop-color="white"/>
<stop offset="1"/>
</linearGradient>
<radialGradient id="paint1_radial_343_1154" cx="0" cy="0" r="1" gradientUnits="userSpaceOnUse" gradientTransform="translate(119.649 64.9981) scale(75.6692 76.1098)">
<stop stop-color="#D5EBD9"/>
<stop offset="1" stop-color="#98D097"/>
</radialGradient>
</defs>
</svg>
