<?xml version="1.0" encoding="utf-8"?>
<!-- Generator: Adobe Illustrator 19.0.0, SVG Export Plug-In . SVG Version: 6.00 Build 0)  -->
<svg version="1.1" id="Layer_1" xmlns="http://www.w3.org/2000/svg" xmlns:xlink="http://www.w3.org/1999/xlink" x="0px" y="0px"
	 viewBox="-734.7 749.8 28.3 37.4" style="enable-background:new -734.7 749.8 28.3 37.4;" xml:space="preserve">
<style type="text/css">
	.st0{fill:#FFFFFF;}
	.st1{fill:#B1BDC4;}
	.st2{fill:none;stroke:#B1BDC4;stroke-width:2;stroke-linecap:round;}
</style>
<g>
	<path class="st0" d="M-729.7,760.5l0.7,6l-1.4,0.1c-1.9,0.2-3.4,1.6-3.8,3.5c-0.7,4.3-0.7,8.7,0,13.1c0.3,1.9,1.9,3.3,3.8,3.5
		l2.9,0.2c4.6,0.4,9.3,0.4,13.9,0l2.9-0.2c1.9-0.2,3.4-1.6,3.8-3.5c0.7-4.3,0.7-8.7,0-13.1c-0.3-1.9-1.9-3.3-3.8-3.5l-1.4-0.1l0.7-6
		c0.1-0.7,0.1-1.4,0-2.1l0-0.4c-0.5-4.3-3.8-7.6-8.1-8.1c-0.7-0.1-1.4-0.1-2.2,0c-4.3,0.5-7.6,3.9-8.1,8.1l0,0.4
		C-729.8,759.1-729.8,759.8-729.7,760.5z M-721.2,752.8c0.5-0.1,1-0.1,1.5,0c2.9,0.3,5.2,2.6,5.5,5.5l0,0.4c0.1,0.5,0.1,1,0,1.5
		l-0.7,6.1c-3.7-0.2-7.5-0.2-11.2,0l-0.7-6.1c-0.1-0.5-0.1-1,0-1.5l0-0.4C-726.4,755.4-724.1,753.1-721.2,752.8z"/>
	<circle class="st1" cx="-725.5" cy="772.9" r="1.5"/>
	<circle class="st1" cx="-715.5" cy="772.9" r="1.5"/>
	<path class="st2" d="M-724,779.4c1.1,1.5,4.1,3.6,7,0"/>
</g>
</svg>
