<svg width="135" height="135" viewBox="0 0 135 135" fill="none" xmlns="http://www.w3.org/2000/svg">
<path d="M135 67.5C135 76.3642 133.254 85.1417 129.862 93.3311C126.47 101.521 121.498 108.962 115.23 115.23C108.962 121.498 101.521 126.47 93.3312 129.862C85.1417 133.254 76.3642 135 67.5 135C30.2224 135 3.08281e-05 104.778 3.08281e-05 67.5C-0.00844692 58.6334 1.7317 49.8522 5.12089 41.6589C8.51008 33.4656 13.4818 26.0211 19.7514 19.7514C26.021 13.4818 33.4655 8.51008 41.6589 5.12089C49.8522 1.73171 58.6334 -0.00844693 67.5 3.08279e-05C104.781 3.08279e-05 135 30.219 135 67.5Z" fill="#A1B8AB"/>
<path d="M95.3899 113.562C92.0793 105.76 84.7798 99.8754 76.5306 98.0301C68.1423 96.151 59.4589 98.8001 53.1668 104.57C49.671 107.768 47.0945 111.844 45.7045 116.374C45.1278 118.256 48.0788 119.06 48.6487 117.185C51.4403 108.057 60.144 100.978 69.7501 100.476C79.5867 99.9635 88.9316 106.123 92.7408 115.102C93.5073 116.906 96.1327 115.353 95.3797 113.562L95.3899 113.562Z" fill="#363636"/>
<g opacity="0.71">
<path opacity="0.71" d="M67.439 83.2184C67.439 87.8382 65.2376 91.4439 62.3511 91.4439C59.4645 91.4439 57.1512 87.7127 57.1512 83.0793C57.1512 78.4459 59.4781 74.7147 62.3511 74.7147C65.224 74.7147 67.439 78.5985 67.439 83.2184Z" fill="white"/>
</g>
<path d="M62.4188 90.8062C65.0408 90.8062 65.0442 86.7358 62.4188 86.7358C59.7935 86.7358 59.7969 90.8062 62.4188 90.8062Z" fill="#363636"/>
<path d="M62.6359 90.5449C63.9452 90.5449 63.9452 88.5098 62.6359 88.5098C61.3266 88.5098 61.3232 90.5449 62.6359 90.5449Z" fill="#363636"/>
<g opacity="0.71">
<path opacity="0.71" d="M81.6852 83.2184C81.6852 87.8382 79.4838 91.4439 76.5973 91.4439C73.7107 91.4439 71.3974 87.7127 71.3974 83.0793C71.3974 78.4459 73.7243 74.7147 76.5973 74.7147C79.4703 74.7147 81.6852 78.5985 81.6852 83.2184Z" fill="white"/>
</g>
<path d="M76.6651 90.8062C79.287 90.8062 79.2904 86.7358 76.6651 86.7358C74.0397 86.7358 74.0431 90.8062 76.6651 90.8062Z" fill="#363636"/>
<path d="M76.8821 90.5449C78.1914 90.5449 78.1914 88.5098 76.8821 88.5098C75.5728 88.5098 75.5694 90.5449 76.8821 90.5449Z" fill="#363636"/>
<path d="M135 67.5C135.009 77.5808 132.757 87.5352 128.408 96.6297C124.059 105.724 117.725 113.727 109.872 120.048C113.665 93.4757 109.292 49.2038 96.118 29.7068C86.9326 16.1152 63.216 8.38836 42.827 4.65043C50.6871 1.56732 59.0569 -0.0102132 67.5001 4.97547e-05C104.781 4.97547e-05 135 30.219 135 67.5Z" fill="#9AB0A3"/>
</svg>
