<svg width="199" height="297" viewBox="0 0 199 297" fill="none" xmlns="http://www.w3.org/2000/svg">
<g style="mix-blend-mode:multiply">
<path d="M112.978 296.59C151.073 296.59 181.955 291.981 181.955 286.295C181.955 280.609 151.073 276 112.978 276C74.8823 276 44 280.609 44 286.295C44 291.981 74.8823 296.59 112.978 296.59Z" fill="#EDEDED"/>
</g>
<path d="M130.701 241.097C130.701 241.097 137.075 253.056 140.795 257.971C144.514 262.887 149.465 266.821 152.826 266.642C156.186 266.462 157.418 263.903 157.071 262.803C156.725 261.703 148.496 252.326 148.496 252.326L146.212 248.894C146.212 248.894 155.301 260.722 159.368 262.803C163.434 264.884 166.974 264.967 168.935 262.803C170.896 260.638 169.114 258.151 167.871 255.627C166.627 253.104 156.198 246.418 155.134 245.187C154.07 243.955 153.651 243.871 153.651 243.871C153.651 243.871 165.61 252.243 167.787 253.439C168.481 253.797 173.001 256.823 174.424 253.845C175.848 250.867 174.245 247.866 167.165 243.608C160.085 239.35 149.154 232.785 146.954 231.075C144.753 229.364 138.498 227.331 138.498 227.331C138.498 227.331 134.432 226.135 131.598 227.331C130.284 227.935 129.206 228.958 128.533 230.238C127.86 231.519 127.63 232.986 127.879 234.411C128.543 236.746 129.491 238.991 130.701 241.097V241.097Z" fill="#B1C4D4"/>
<path d="M78.319 160.108C73.8526 162.124 69.1755 163.636 64.3744 164.616C53.7305 166.913 49.3654 167.212 46.8898 170.716C44.773 173.706 43.302 203.305 47.4997 204.298C51.6974 205.29 74.779 210.026 78.594 209.165C82.4091 208.304 78.319 160.108 78.319 160.108Z" fill="#E19C98"/>
<path d="M133.248 151.987C133.248 151.987 142.505 156.472 150.96 157.441C164.905 159.043 168.505 158.996 170.932 163.289C172.726 166.47 173.516 194.455 169.461 195.878C165.407 197.301 142.923 204.393 139.013 203.927C135.102 203.46 133.248 151.987 133.248 151.987Z" fill="#E19C98"/>
<path d="M101.377 88.5669C113.252 87.8015 115.728 94.5466 117.725 100.203C119.722 105.86 119.758 117.652 120.272 124.911C120.813 131.159 122.942 137.166 126.455 142.36C130.043 146.988 136.166 150.002 141.309 160.55C146.451 171.098 151.151 196.034 151.522 203.042C152.084 213.554 149.812 230.106 145.423 235.655C140.699 241.635 132.052 251.836 113.539 253.379C95.0262 254.922 75.8792 243.883 70.4856 231.027C65.8812 220.084 63.1904 214.284 62.114 197.84C61.0377 181.395 64.1232 169.029 67.723 160.55C71.3227 152.071 80.3281 149.5 81.8709 143.807C83.6182 137.16 84.6407 130.343 84.9205 123.476C85.4348 114.806 84.4063 105.741 86.9775 98.541C89.5488 91.3415 94.4282 88.9855 101.377 88.5669Z" fill="#F9B5B2"/>
<path d="M42.3213 63.0217C46.7104 41.9971 54.9026 18.6405 78.1994 10.7951C98.0161 4.13378 105.766 10.9147 105.766 10.9147L105.981 8.34348C106.056 6.44082 105.891 4.53631 105.491 2.67474C105.491 2.67474 109.078 4.77959 109.485 6.0114C109.892 7.24322 110.179 8.09233 110.179 8.09233L112.822 5.26992L113.097 9.64705C113.097 9.64705 115.967 7.74551 118.634 8.45111C120.153 8.83381 121.468 11.8117 121.468 11.8117C121.468 11.8117 118.718 11.2616 118.562 13.2109C118.407 15.1603 118.562 14.3232 118.562 14.3232C118.562 14.3232 133.153 10.9028 143.342 26.9044C156.055 46.9005 162.322 79.6213 155.11 106.494C151.104 121.395 142.182 132.147 129.302 139.574C118.263 145.936 102.489 149.045 84.203 145.314C66.264 141.666 46.2679 124.493 41.3526 110.13C36.7602 96.8308 38.4704 81.4391 42.3213 63.0217Z" fill="#E19C98"/>
<path d="M163.733 158.996C166.543 159.079 170.478 159.713 175.764 163.289C184.542 169.269 185.427 175.057 187.903 186.371C190.378 197.684 189.649 207.407 188.907 209.189C188.166 210.971 187.424 214.343 184.052 213.602C180.679 212.86 179.184 210.014 178.802 206.976C178.419 203.939 176.326 194.084 176.326 194.084C176.326 194.084 177.522 208.436 177.032 211.007C176.541 213.578 177.833 222.033 172.678 222.859C166.364 223.863 165.299 197.672 163.709 197.672C163.709 197.672 163.003 210.588 162.644 215.456C162.286 220.323 159.128 228.288 152.67 227.929C146.212 227.57 148.807 218.96 149.262 214.463C149.716 209.966 150.35 203.054 150.35 203.054C150.35 203.054 147.085 214.056 144.311 216.915C141.536 219.773 137.41 224.234 131.43 227.343C125.451 230.453 118.634 233.323 116.111 232.809C113.587 232.294 110.968 232.127 110.298 229.508C109.629 226.889 110.227 222.165 114.018 219.821C115.776 218.721 125.499 214.918 127.843 214.726C130.187 214.535 137.685 210.516 140.675 207.287C142.935 204.896 147.6 198.318 145.985 192.027C143.928 183.991 137.446 178.071 128.752 179.877C120.057 181.682 118.55 185.773 117.414 187.722C115.895 190.341 115.835 195.591 113.252 196.392C110.669 197.194 107.667 194.766 107.93 191.118C108.193 187.471 110.191 178.812 113.635 173.562C115.584 170.584 120.416 163.468 126.467 165.334C134.181 167.726 139.264 169.065 142.995 169.352C146.499 169.615 155.792 170.213 160.599 168.635C167.344 166.41 163.733 158.996 163.733 158.996Z" fill="#F9B5B2"/>
<path d="M191.431 185.569C191.431 185.569 187.436 191.346 183.609 191.788C179.782 192.231 177.426 189.767 176.158 189.982C174.891 190.198 173.767 193.439 170.071 193.343C167.65 193.255 165.28 192.625 163.135 191.501C162.31 191.13 161.939 197.373 158.554 196.727C155.17 196.082 156.402 198.27 155.481 190.233C154.56 182.197 153.771 177.796 148.389 173.574C143.007 169.352 137.47 161.938 133.822 161.686C130.175 161.435 120.93 159.904 116.17 161.232C111.411 162.559 105.873 175.26 105.873 175.26L107.165 202.767C107.165 202.767 104.211 237.15 110.107 239.063C116.003 240.977 134.66 229.4 137.613 230.548C140.567 231.697 143.055 234.244 151.965 232.438C160.874 230.632 175.608 228.061 179.746 225.705C183.884 223.349 193.177 220.981 194.803 214.834C196.43 208.687 198.307 195.806 198.307 195.806L191.431 185.569Z" fill="#B1C4D4"/>
<path d="M50.7646 167.833C47.0214 168.874 44.785 169.173 37.8605 173.67C28.9627 179.41 27.9701 185.832 26.9177 197.361C25.8652 208.89 27.7668 218.469 28.7235 220.084C29.6803 221.698 30.8284 225.011 34.0813 223.863C37.3343 222.715 38.4824 219.749 38.4824 216.687C38.4824 213.626 39.3554 203.532 39.3554 203.532C39.3554 203.532 39.8697 217.979 40.7307 220.419C41.5918 222.859 41.2928 231.457 46.5071 231.637C52.9054 231.864 50.7407 205.733 52.3193 205.553C52.3193 205.553 54.6036 218.278 55.5603 223.062C56.5171 227.846 60.6191 235.368 66.9935 234.22C73.3678 233.072 69.7202 224.832 68.7156 220.431C67.711 216.03 66.24 209.237 66.24 209.237C66.24 209.237 70.8324 219.761 73.9299 222.261C77.0274 224.76 81.6796 228.671 87.9941 231.015C94.3087 233.359 101.436 235.428 103.876 234.603C106.316 233.777 108.899 233.287 109.234 230.608C109.569 227.929 108.397 223.313 104.355 221.447C102.477 220.574 92.3952 217.991 90.0033 218.087C87.6114 218.182 79.7302 215.121 76.3577 212.298C73.8103 210.158 68.3808 204.238 69.182 197.804C70.2345 189.564 75.9391 182.89 84.7292 183.62C93.5193 184.349 95.5883 188.224 96.9517 190.006C98.7815 192.398 99.4871 197.624 102.154 198.103C104.821 198.581 107.488 195.806 106.77 192.219C106.053 188.631 103.027 180.259 98.9609 175.476C96.6647 172.773 90.984 166.303 85.2076 168.898C77.8406 172.211 72.9612 174.172 69.3016 174.878C65.8573 175.571 56.828 178.178 53.2881 175.153C52.2732 174.253 51.5078 173.106 51.0657 171.824C50.6236 170.542 50.5199 169.167 50.7646 167.833V167.833Z" fill="#F9B5B2"/>
<path d="M23.3059 197.002C23.3059 197.002 27.982 202.241 31.8449 202.217C35.7078 202.193 37.7289 199.442 39.0205 199.502C40.3121 199.562 41.8669 202.635 45.4666 202.085C47.8595 201.709 50.1365 200.797 52.128 199.418C52.8934 198.94 53.9817 205.099 57.3184 204.035C60.655 202.97 59.6385 205.302 59.5667 197.206C59.495 189.109 59.7222 184.66 64.5538 179.805C69.3854 174.949 73.9538 166.913 77.5416 166.219C81.1294 165.525 90.1109 162.858 95.0023 163.588C99.8937 164.317 106.962 176.253 106.962 176.253L109.067 203.688C109.067 203.688 116.242 237.461 110.609 240.08C104.976 242.699 85.0641 233.514 82.2895 235.009C79.5149 236.504 77.3383 239.35 68.2612 238.657C59.184 237.963 44.2348 237.282 39.8099 235.38C35.3849 233.478 25.937 232.354 23.569 226.518C21.2011 220.682 17.7448 208.053 17.7448 208.053L23.3059 197.002Z" fill="#B1C4D4"/>
<path d="M42.2017 61.0963C46.5789 40.0837 54.783 16.727 78.0798 8.85777C97.8965 2.19641 105.646 8.97736 105.646 8.97736L105.861 6.4061C105.936 4.50344 105.771 2.59894 105.371 0.737366C105.371 0.737366 108.959 2.84221 109.365 4.07403C109.772 5.30584 110.059 6.143 110.059 6.143L112.762 3.36843L113.037 7.74555C113.037 7.74555 115.907 5.84401 118.574 6.54962C120.081 6.92036 121.409 9.89824 121.409 9.89824C121.409 9.89824 118.658 9.34811 118.502 11.3094C118.347 13.2708 118.502 12.4217 118.502 12.4217C118.502 12.4217 133.093 8.98933 143.282 25.0029C155.995 44.999 162.25 77.7078 155.038 104.592C151.044 119.494 142.122 130.245 129.242 137.672C118.203 144.034 102.429 147.144 84.1432 143.413C66.2042 139.753 46.2081 122.591 41.2928 108.228C36.6287 94.9652 38.3508 79.5256 42.2017 61.0963Z" fill="#F9B5B2"/>
<path d="M86.8341 56.743C90.2819 56.743 93.0769 53.948 93.0769 50.5002C93.0769 47.0524 90.2819 44.2574 86.8341 44.2574C83.3863 44.2574 80.5913 47.0524 80.5913 50.5002C80.5913 53.948 83.3863 56.743 86.8341 56.743Z" fill="#603913"/>
<path d="M108.648 57.7476C112.096 57.7476 114.891 54.9526 114.891 51.5048C114.891 48.057 112.096 45.262 108.648 45.262C105.2 45.262 102.405 48.057 102.405 51.5048C102.405 54.9526 105.2 57.7476 108.648 57.7476Z" fill="#603913"/>
<path d="M86.8819 75.1724C94.2489 72.7806 96.4494 73.9765 101.735 78.3058C107.021 82.6351 103.757 88.2201 109.126 89.8824C114.496 91.5448 120.823 90.9708 122.282 91.0784C123.535 91.0434 124.77 91.3787 125.834 92.0424C126.898 92.7061 127.742 93.6687 128.261 94.8097C129.457 97.6202 130.534 101.818 127.388 104.557C124.243 107.295 117.055 112.223 115.01 115.452C112.965 118.681 94.4282 145.781 81.4165 152.526C71.6337 157.584 55.9789 159.57 46.4114 156.544C36.8439 153.518 26.2001 146.426 24.5856 145.505C22.9711 144.585 18.6059 144.848 16.9555 142.563C15.3051 140.279 13.4634 136.584 19.2158 134.252C24.9683 131.92 36.9276 128.152 43.1346 125.354C49.3415 122.555 67.5077 113.395 67.5077 113.395C67.5077 113.395 50.1786 114.59 41.1971 114.59C35.2175 114.59 24.8367 114.686 21.1533 115.165C17.4698 115.643 11.6575 117.556 6.87377 118.752C4.58954 119.314 -0.600826 118.346 0.810378 113.837C2.22158 109.328 3.52516 97.7517 16.6326 91.8199C29.7401 85.888 37.107 89.428 45.9928 89.6911C54.8786 89.9542 56.5649 89.6911 62.8675 88.244C69.1701 86.7969 73.7505 82.8743 77.422 80.315C81.0936 77.7557 82.8635 76.476 86.8819 75.1724Z" fill="#F5E58A"/>
<path d="M70.7966 112.904C74.9382 112.419 79.031 111.583 83.031 110.405C88.2589 108.476 93.3156 106.112 98.1476 103.337C101.652 101.304 103.302 98.1224 104.869 99.3184C106.435 100.514 100.85 107.989 97.2387 111.015C92.2038 115.236 88.6399 118.429 76.25 125.725C76.25 125.725 62.8675 132.577 54.7232 135.22C46.5789 137.863 33.6149 140.59 28.8312 141.762C25.8533 142.492 20.1846 142.157 18.6298 141.128C17.0751 140.1 15.7835 138.378 17.7329 136.99C20.926 134.718 28.1734 133.474 36.4493 129.97C44.7252 126.466 60.655 118.501 63.1186 117.018L70.7966 112.904Z" fill="#D3CF58"/>
<path d="M121.516 243.477C123.25 241.742 126.934 241.695 129.23 245.019C131.526 248.344 130.833 254.587 131.179 256.596C131.526 258.605 131.634 262.133 132.375 263.532C133.26 265.349 134.391 267.036 135.736 268.543C137.279 270.086 141.716 272.215 142.684 276.257C143.402 279.283 143.88 282.141 143.545 283.301C143.211 284.461 139.599 284.653 138.056 283.971C136.932 283.493 135.353 281.268 134.193 284.413C133.033 287.559 132.997 287.571 129.565 287.571C126.133 287.571 125.319 284.366 123.394 283.206C121.468 282.045 119.543 283.206 118 283.971C116.457 284.736 113.755 284.748 114.137 282.428C114.785 279.06 116.242 275.899 118.383 273.219C121.086 269.703 123.394 268.663 123.011 265.135C122.628 261.607 121.468 253.522 121.468 253.522C121.134 250.03 119.782 245.211 121.516 243.477Z" fill="#F5E58A"/>
<path d="M102.549 242.448C100.815 240.714 97.131 240.666 94.8348 243.991C92.5386 247.315 93.2323 253.558 92.8855 255.567C92.5386 257.577 92.431 261.105 91.6895 262.504C90.8051 264.321 89.6743 266.007 88.3289 267.515C86.7862 269.058 82.3492 271.186 81.3805 275.229C80.663 278.254 80.1846 281.113 80.5195 282.273C80.8543 283.433 84.4661 283.624 86.0088 282.942C87.133 282.464 88.7116 280.24 89.8717 283.385C91.0318 286.53 91.0676 286.542 94.5 286.542C97.9323 286.542 98.7455 283.337 100.671 282.177C102.596 281.017 104.522 282.177 106.065 282.942C107.607 283.708 110.31 283.72 109.928 281.4C109.28 278.031 107.823 274.871 105.682 272.191C102.979 268.675 100.671 267.634 101.054 264.106C101.436 260.578 102.596 252.494 102.596 252.494C102.931 249.002 104.283 244.182 102.549 242.448Z" fill="#F5E58A"/>
</svg>
