<svg width="174" height="282" viewBox="0 0 174 282" fill="none" xmlns="http://www.w3.org/2000/svg">
<g style="mix-blend-mode:multiply">
<path d="M86.9776 281.59C125.073 281.59 155.955 276.981 155.955 271.295C155.955 265.609 125.073 261 86.9776 261C48.8823 261 18 265.609 18 271.295C18 276.981 48.8823 281.59 86.9776 281.59Z" fill="#EDEDED"/>
</g>
<path d="M78.2183 217.173C78.2183 217.173 79.7405 234.916 79.1725 236.586C78.6045 238.256 78.7749 246.867 76.6166 251.842C74.2224 257.222 70.7416 262.049 66.3929 266.019C61.7355 270.347 53.8974 275.277 50.9211 273.312C47.9449 271.347 48.831 265.36 48.831 265.36C48.831 265.36 41.22 269.018 39.3684 265.428C37.5168 261.839 44.3553 257.261 44.3553 257.261C44.3553 257.261 36.04 259.135 35.0744 255.182C34.1089 251.229 44.2985 247.696 44.2985 247.696C44.2985 247.696 50.6258 246.106 52.4888 244.833C54.3517 243.561 54.5108 243.641 55.6013 241.017C56.5101 238.847 55.3855 237.609 54.4653 231.043C53.8178 226.397 51.5573 219.331 52.6819 210.482C53.8065 201.633 58.3617 200.315 63.7348 200.349C69.1079 200.383 73.8221 203.019 75.5942 207.46C76.7763 210.607 77.655 213.859 78.2183 217.173Z" fill="#CBAD90"/>
<path d="M105.288 217.173C105.288 217.173 103.777 234.916 104.345 236.586C104.913 238.256 104.743 246.867 106.89 251.842C109.285 257.222 112.766 262.048 117.114 266.019C121.771 270.347 129.552 275.277 132.574 273.312C135.596 271.347 134.676 265.36 134.676 265.36C134.676 265.36 142.287 269.018 144.127 265.428C145.967 261.839 139.151 257.261 139.151 257.261C139.151 257.261 147.467 259.135 148.421 255.182C149.375 251.229 139.197 247.696 139.197 247.696C139.197 247.696 132.869 246.106 131.018 244.833C129.166 243.561 128.996 243.641 127.894 241.017C126.997 238.847 128.11 237.609 129.03 231.043C129.677 226.397 131.938 219.331 130.813 210.482C129.689 201.633 125.134 200.315 119.76 200.349C114.387 200.383 109.673 203.019 107.89 207.46C106.721 210.609 105.85 213.861 105.288 217.173Z" fill="#CBAD90"/>
<path d="M45.264 143.392C54.2836 127.829 68.574 126.353 90.0891 126.353C111.604 126.353 128.394 129.34 136.13 144.13C142.253 155.831 154.839 174.154 154.782 193.806C154.725 213.458 131.29 241.959 90.0891 241.959C48.8877 241.959 25.4074 215.264 25.4074 193.806C25.4074 172.348 36.2445 158.943 45.264 143.392Z" fill="#FCBC7E"/>
<path d="M90.1005 8.54182C69.1533 8.72358 56.9076 9.99585 44.821 26.206C32.7344 42.4162 24.9189 65.499 20.7386 72.3034C16.5583 79.1078 -3.87772 92.2055 1.35907 123.615C6.59586 155.024 61.0539 160.25 61.0539 160.25C61.0539 160.25 72.5158 166.532 93.7128 166.634C115.296 166.736 122.839 160.25 122.839 160.25C122.839 160.25 165.029 162.522 172.583 124.91C178.865 93.6595 153.976 72.7805 153.976 72.7805C153.976 72.7805 141.287 35.7708 136.05 25.9788C130.813 16.1869 112.888 8.34871 90.1005 8.54182Z" fill="#E1905C"/>
<path d="M23.374 4.91809C27.1909 -2.81782 39.5956 0.703672 47.0589 4.42963C55.8512 8.8258 64.0983 21.0374 64.0983 21.0374C64.0983 21.0374 50.2623 26.4105 44.7869 37.6452C39.3116 48.8798 34.1202 60.1145 34.1202 60.1145C34.1202 60.1145 26.1685 53.4919 22.7606 37.8156C20.0797 25.4904 19.5118 12.7335 23.374 4.91809Z" fill="#FCBC7E"/>
<path d="M151.533 4.91809C147.716 -2.81782 135.312 0.703672 127.849 4.42963C119.056 8.8258 110.741 21.0374 110.741 21.0374C110.741 21.0374 124.588 26.4105 130.12 37.6452C135.653 48.8798 140.787 60.1145 140.787 60.1145C140.787 60.1145 148.739 53.4919 152.147 37.8156C154.828 25.4904 155.396 12.7335 151.533 4.91809Z" fill="#FCBC7E"/>
<path d="M90.1005 6.49707C69.1533 6.66747 56.8622 7.95111 44.821 24.184C32.7798 40.4169 24.9189 63.4542 20.7386 70.2587C16.5583 77.0631 -3.87772 90.1494 1.35907 121.627C6.59586 153.104 61.0539 158.273 61.0539 158.273C61.0539 158.273 72.5158 164.566 93.7128 164.669C115.296 164.771 122.839 158.273 122.839 158.273C122.839 158.273 165.029 160.545 172.583 122.933C178.865 91.6716 153.976 70.7699 153.976 70.7699C153.976 70.7699 141.287 33.7034 136.05 23.9341C130.813 14.1648 112.888 6.30396 90.1005 6.49707Z" fill="#FCBC7E"/>
<path d="M32.1664 13.7104C33.4046 10.4956 39.9705 11.6203 44.662 15.6643C47.5335 18.1893 50.0788 21.0628 52.2389 24.2181C52.2389 24.2181 45.4231 30.8067 43.6851 33.4989C41.947 36.1911 39.2889 40.5759 39.2889 40.5759C35.9371 37.2654 33.5968 33.0693 32.5413 28.4779C31.0304 21.9802 30.2921 18.5723 32.1664 13.7104Z" fill="#F9A870"/>
<path d="M142.741 13.7104C141.503 10.4956 134.937 11.6203 130.245 15.6643C127.374 18.1893 124.829 21.0628 122.669 24.2181C122.669 24.2181 129.484 30.8067 131.222 33.4989C132.96 36.1911 135.618 40.5759 135.618 40.5759C138.969 37.2662 141.306 33.0693 142.355 28.4779C143.877 21.9802 144.615 18.5723 142.741 13.7104Z" fill="#F9A870"/>
<path d="M41.2768 91.1604C44.5517 91.1604 47.2065 88.5055 47.2065 85.2306C47.2065 81.9557 44.5517 79.3009 41.2768 79.3009C38.0019 79.3009 35.3471 81.9557 35.3471 85.2306C35.3471 88.5055 38.0019 91.1604 41.2768 91.1604Z" fill="#603913"/>
<path d="M134.346 91.1604C137.621 91.1604 140.276 88.5055 140.276 85.2306C140.276 81.9557 137.621 79.3009 134.346 79.3009C131.071 79.3009 128.417 81.9557 128.417 85.2306C128.417 88.5055 131.071 91.1604 134.346 91.1604Z" fill="#603913"/>
<path d="M87.0107 94.023C92.0543 93.864 97.1207 94.6591 97.2343 98.1352C97.3479 101.611 93.4743 109.063 87.0107 109.063C80.547 109.063 76.5484 102.565 76.5484 98.2942C76.5484 94.023 84.2616 94.1139 87.0107 94.023Z" fill="#603913"/>
<path d="M87.6468 104.156H86.3291V113.323H87.6468V104.156Z" fill="#603913"/>
<path d="M32.1664 73.0531L31.2576 72.1103C31.3371 72.0308 39.4024 64.3971 49.8306 71.5537L49.0922 72.6896C39.5728 66.101 32.4617 72.7805 32.1664 73.0531Z" fill="#603913"/>
<path d="M125.929 73.0531L125.02 72.1103C125.088 72.0308 133.165 64.3971 143.593 71.5537L142.843 72.6896C133.335 66.101 126.201 72.7805 125.929 73.0531Z" fill="#603913"/>
<path d="M55.9421 112.891C61.8682 115.605 68.3735 116.811 74.8786 116.401C80.4221 115.936 86.9993 112.891 86.9993 112.891C86.9993 112.891 92.8382 116.049 96.814 116.299C103.741 116.656 110.661 115.493 117.091 112.891C117.091 112.891 110.741 138.53 86.9993 138.53C63.2577 138.53 55.9421 112.891 55.9421 112.891Z" fill="#F48593"/>
<path d="M86.9993 139.189C63.0532 139.189 55.3855 113.323 55.3173 113.062L54.897 111.63L56.2374 112.301C62.0608 114.938 68.4416 116.108 74.8218 115.709C80.1835 115.266 86.6585 112.301 86.7153 112.301L87.022 112.164L87.306 112.323C87.3628 112.323 93.0653 115.425 96.8595 115.731C103.683 116.036 110.493 114.874 116.83 112.323L118.057 111.778L117.727 113.073C117.67 113.3 110.968 139.189 86.9993 139.189ZM57.044 114.107C58.9978 119.389 67.2676 137.871 86.9993 137.871C106.731 137.871 114.41 119.128 116.08 114.016C109.916 116.327 103.343 117.344 96.7686 117.004C93.1562 116.742 88.2261 114.277 86.9766 113.596C83.1497 115.31 79.0933 116.458 74.9354 117.004C68.8287 117.416 62.7085 116.425 57.044 114.107Z" fill="#603913"/>
<path d="M79.4792 116.254C79.3141 117.653 79.2231 119.06 79.2066 120.468C79.2662 121.911 79.6219 123.326 80.2517 124.626C80.6512 125.187 81.1521 125.669 81.7284 126.046C82.4878 126.396 83.329 126.529 84.1594 126.432C85.0102 126.353 85.7967 125.946 86.3518 125.296C86.7484 124.816 87.0318 124.253 87.181 123.649C87.5727 124.312 88.0012 124.953 88.4647 125.569C89.1694 126.059 90.0375 126.254 90.8843 126.114C91.3094 126.107 91.729 126.016 92.1189 125.847C92.5088 125.677 92.8613 125.432 93.1562 125.126C93.5881 124.427 93.8956 123.658 94.065 122.854C94.3037 121.462 94.4139 120.051 94.3944 118.639C94.3715 117.915 94.2725 117.196 94.0991 116.492C92.9445 116.172 91.8071 115.793 90.6912 115.356C89.2031 114.788 86.9766 113.652 86.9766 113.652C86.9766 113.652 84.273 114.788 82.8985 115.277C81.6716 115.64 79.4792 116.254 79.4792 116.254Z" fill="#F1F2F2"/>
<path d="M51.2278 117.276L50.6599 116.14C56.3397 113.448 55.2037 108.268 55.1242 108.052L56.3965 107.734C56.7627 109.676 56.4488 111.685 55.5074 113.423C54.566 115.161 53.0547 116.522 51.2278 117.276Z" fill="#603913"/>
<path d="M121.771 117.276C119.933 116.52 118.414 115.15 117.471 113.4C116.529 111.65 116.222 109.628 116.602 107.677L117.875 107.995C117.875 108.211 116.648 113.391 122.339 116.083L121.771 117.276Z" fill="#603913"/>
<path d="M62.0308 179.561C64.8253 190.103 78.4228 200.213 80.3993 203.109C82.3759 206.006 81.5353 211.606 78.4455 213.833C75.3557 216.059 65.8136 214.378 56.7827 203.496C47.7518 192.613 42.0152 179.947 42.0152 178.107C42.0152 176.267 39.7432 170.155 45.8434 168.769C57.1462 166.157 62.0308 179.561 62.0308 179.561Z" fill="#E1905C"/>
<path d="M119.283 179.561C116.489 190.103 102.891 200.213 100.915 203.109C98.9383 206.006 99.7789 211.606 102.869 213.833C105.959 216.059 115.501 214.378 124.531 203.496C133.562 192.613 139.299 179.947 139.299 178.107C139.299 176.267 141.571 170.155 135.471 168.769C124.179 166.157 119.283 179.561 119.283 179.561Z" fill="#E1905C"/>
<path d="M62.0308 177.289C64.8253 187.831 78.4228 197.93 80.3993 200.826C82.3759 203.723 81.5353 209.323 78.4455 211.561C75.3557 213.799 65.8136 212.095 56.7827 201.212C47.7518 190.33 42.0152 177.664 42.0152 175.835C42.0152 174.006 39.7432 167.883 45.8434 166.497C57.1462 163.851 62.0308 177.289 62.0308 177.289Z" fill="#F9A870"/>
<path d="M71.9705 212.89C71.9705 212.89 69.4146 209.584 70.8346 208.494C72.2545 207.403 76.6961 211.232 76.6961 211.232C76.6961 211.232 71.3798 206.29 73.7654 205.007C76.1509 203.723 80.4789 208.903 80.4789 208.903C80.4789 208.903 77.2301 203.359 78.3319 201.712C79.4338 200.065 82.1829 203.723 82.1829 203.723C82.1829 203.723 85.7157 208.21 82.1829 211.675C80.87 213.004 79.1447 213.848 77.2894 214.069C75.434 214.29 73.5587 213.874 71.9705 212.89Z" fill="#CBAD90"/>
<path d="M119.283 177.289C116.489 187.831 102.891 197.93 100.915 200.826C98.9383 203.723 99.7789 209.323 102.869 211.561C105.959 213.799 115.501 212.095 124.531 201.212C133.562 190.33 139.299 177.664 139.299 175.835C139.299 174.006 141.571 167.883 135.471 166.497C124.179 163.851 119.283 177.289 119.283 177.289Z" fill="#F9A870"/>
<path d="M109.344 212.89C109.344 212.89 111.911 209.584 110.48 208.494C109.048 207.403 104.618 211.232 104.618 211.232C104.618 211.232 109.923 206.29 107.549 205.007C105.175 203.723 100.824 208.903 100.824 208.903C100.824 208.903 104.073 203.359 102.971 201.712C101.869 200.065 99.12 203.723 99.12 203.723C99.12 203.723 95.5872 208.21 99.12 211.675C100.434 213.007 102.161 213.853 104.019 214.074C105.877 214.295 107.754 213.877 109.344 212.89Z" fill="#CBAD90"/>
</svg>
