<svg width="135" height="135" viewBox="0 0 135 135" fill="none" xmlns="http://www.w3.org/2000/svg">
<path d="M135 67.4999C135.008 76.3665 133.268 85.1477 129.879 93.341C126.49 101.534 121.518 108.979 115.249 115.248C108.979 121.518 101.534 126.49 93.3412 129.879C85.1479 133.268 76.3666 135.008 67.5 135C30.2191 135 0.00012207 104.781 0.00012207 67.4999C0.00012207 49.5978 7.11166 32.4289 19.7704 19.7703C32.429 7.11156 49.5979 0 67.5 0C104.778 0 135 30.2223 135 67.4999Z" fill="#EEB359"/>
<path d="M62.3511 26.5725C62.3511 31.1924 60.1497 34.8014 57.2631 34.8014C54.3766 34.8014 52.0632 31.0703 52.0632 26.4368C52.0632 21.8034 54.3901 18.0723 57.2631 18.0723C60.1361 18.0723 62.3511 21.9561 62.3511 26.5725Z" fill="white"/>
<path d="M79.2395 26.5725C79.2395 31.1924 77.0381 34.8014 74.1516 34.8014C71.265 34.8014 68.9518 31.0703 68.9518 26.4368C68.9518 21.8034 71.282 18.0723 74.1516 18.0723C77.0212 18.0723 79.2395 21.9561 79.2395 26.5725Z" fill="white"/>
<path d="M57.6702 33.4855C60.2887 33.4855 60.2921 29.4152 57.6702 29.4152C55.0482 29.4152 55.0448 33.4855 57.6702 33.4855Z" fill="#363636"/>
<path d="M74.1346 33.2174C76.7532 33.2174 76.7566 29.1471 74.1346 29.1471C71.5126 29.1471 71.5093 33.2174 74.1346 33.2174Z" fill="#363636"/>
<path d="M74.2431 33.3225C75.5524 33.3225 75.5558 31.2874 74.2431 31.2874C72.9304 31.2874 72.9304 33.3225 74.2431 33.3225Z" fill="#363636"/>
<path d="M57.8837 33.56C59.193 33.56 59.1964 31.5248 57.8837 31.5248C56.571 31.5248 56.571 33.56 57.8837 33.56Z" fill="#363636"/>
<path d="M90.6603 58.0125C88.9957 54.0858 86.435 50.6034 83.1831 47.8439C79.9312 45.0845 76.0785 43.1246 71.9334 42.1212C63.562 40.1335 54.8548 42.6808 48.4915 48.3759C44.9012 51.5915 42.2516 55.7218 40.8257 60.3258C40.2456 62.205 43.2001 63.0122 43.7699 61.1365C46.5615 52.0969 55.1669 45.0789 64.6813 44.5159C74.3246 43.9359 83.9646 49.9193 87.7161 58.83C88.4692 60.6141 91.4235 59.8475 90.6603 58.0193V58.0125Z" fill="#363636"/>
<path d="M56.2218 73.2831C56.3567 73.2831 56.4861 73.2295 56.5815 73.1341C56.677 73.0387 56.7306 72.9092 56.7306 72.7743C56.7306 72.6394 56.677 72.5099 56.5815 72.4145C56.4861 72.3191 56.3567 72.2655 56.2218 72.2655C56.0869 72.2655 55.9574 72.3191 55.862 72.4145C55.7666 72.5099 55.713 72.6394 55.713 72.7743C55.713 72.9092 55.7666 73.0387 55.862 73.1341C55.9574 73.2295 56.0869 73.2831 56.2218 73.2831Z" fill="#ED9595"/>
<path d="M78.8936 70.4306C79.0286 70.4306 79.1579 70.3769 79.2534 70.2815C79.3488 70.1861 79.4024 70.0567 79.4024 69.9218C79.4024 69.7868 79.3488 69.6574 79.2534 69.562C79.1579 69.4666 79.0286 69.413 78.8936 69.413C78.7587 69.413 78.6292 69.4666 78.5338 69.562C78.4384 69.6574 78.3848 69.7868 78.3848 69.9218C78.3848 70.0567 78.4384 70.1861 78.5338 70.2815C78.6292 70.3769 78.7587 70.4306 78.8936 70.4306Z" fill="#ED9595"/>
<path d="M75.5627 86.2981C75.6976 86.2981 75.827 86.2445 75.9224 86.1491C76.0178 86.0537 76.0715 85.9243 76.0715 85.7893C76.0715 85.6544 76.0178 85.525 75.9224 85.4295C75.827 85.3341 75.6976 85.2805 75.5627 85.2805C75.4277 85.2805 75.2983 85.3341 75.2029 85.4295C75.1075 85.525 75.0539 85.6544 75.0539 85.7893C75.0539 85.9243 75.1075 86.0537 75.2029 86.1491C75.2983 86.2445 75.4277 86.2981 75.5627 86.2981Z" fill="#ED9595"/>
<path d="M59.0744 87.3937C59.2093 87.3937 59.3388 87.3401 59.4342 87.2447C59.5296 87.1492 59.5832 87.0198 59.5832 86.8849C59.5832 86.75 59.5296 86.6205 59.4342 86.5251C59.3388 86.4297 59.2093 86.3761 59.0744 86.3761C58.9395 86.3761 58.8101 86.4297 58.7147 86.5251C58.6193 86.6205 58.5656 86.75 58.5656 86.8849C58.5656 87.0198 58.6193 87.1492 58.7147 87.2447C58.8101 87.3401 58.9395 87.3937 59.0744 87.3937Z" fill="#ED9595"/>
<path d="M69.1621 56.6253C69.297 56.6253 69.4265 56.5717 69.5219 56.4762C69.6173 56.3808 69.6708 56.2514 69.6708 56.1165C69.6708 55.9815 69.6173 55.8521 69.5219 55.7567C69.4265 55.6613 69.297 55.6077 69.1621 55.6077C69.0271 55.6077 68.8977 55.6613 68.8023 55.7567C68.7069 55.8521 68.6533 55.9815 68.6533 56.1165C68.6533 56.2514 68.7069 56.3808 68.8023 56.4762C68.8977 56.5717 69.0271 56.6253 69.1621 56.6253Z" fill="#ED9595"/>
<path d="M54.6207 55.1735C54.7557 55.1735 54.885 55.1199 54.9805 55.0245C55.0759 54.929 55.1295 54.7996 55.1295 54.6647C55.1295 54.5297 55.0759 54.4003 54.9805 54.3049C54.885 54.2095 54.7557 54.1559 54.6207 54.1559C54.4858 54.1559 54.3563 54.2095 54.2609 54.3049C54.1655 54.4003 54.1119 54.5297 54.1119 54.6647C54.1119 54.7996 54.1655 54.929 54.2609 55.0245C54.3563 55.1199 54.4858 55.1735 54.6207 55.1735Z" fill="#ED9595"/>
<path d="M66.5604 94.0319V94.3439C66.5604 94.4788 66.6141 94.6083 66.7095 94.7037C66.8049 94.7991 66.9343 94.8527 67.0692 94.8527C67.2042 94.8527 67.3335 94.7991 67.429 94.7037C67.5244 94.6083 67.578 94.4788 67.578 94.3439V94.0319C67.578 93.8969 67.5244 93.7675 67.429 93.6721C67.3335 93.5767 67.2042 93.5231 67.0692 93.5231C66.9343 93.5231 66.8049 93.5767 66.7095 93.6721C66.6141 93.7675 66.5604 93.8969 66.5604 94.0319Z" fill="#ED9595"/>
<path d="M86.3016 82.9063C86.4365 82.9063 86.566 82.8527 86.6614 82.7572C86.7568 82.6618 86.8104 82.5324 86.8104 82.3975C86.8104 82.2625 86.7568 82.1331 86.6614 82.0377C86.566 81.9423 86.4365 81.8887 86.3016 81.8887C86.1666 81.8887 86.0373 81.9423 85.9418 82.0377C85.8464 82.1331 85.7928 82.2625 85.7928 82.3975C85.7928 82.5324 85.8464 82.6618 85.9418 82.7572C86.0373 82.8527 86.1666 82.9063 86.3016 82.9063Z" fill="#ED9595"/>
<path d="M130.712 91.2265C125.877 104.084 117.236 115.161 105.941 122.979C94.6468 130.797 81.2365 134.985 67.5 134.983C30.219 134.983 7.69374e-05 104.764 7.69374e-05 67.4829C-0.0233554 51.9883 5.30634 36.9614 15.0875 24.9443C11.4615 50.0448 10.3388 82.5906 25.1786 96.4569C49.0444 118.769 108.081 110.832 130.712 91.2265Z" fill="#E0A751"/>
</svg>
