<svg width="201" height="296" viewBox="0 0 201 296" fill="none" xmlns="http://www.w3.org/2000/svg">
<g style="mix-blend-mode:multiply">
<path d="M99.9776 295.59C138.073 295.59 168.955 290.981 168.955 285.295C168.955 279.609 138.073 275 99.9776 275C61.8823 275 31 279.609 31 285.295C31 290.981 61.8823 295.59 99.9776 295.59Z" fill="#EDEDED"/>
</g>
<path d="M78.8207 216.605C78.3407 222.56 77.6777 228.149 77.6777 237.488C77.6777 246.826 78.6607 252.724 77.6777 257.639C76.6947 262.554 72.7627 264.497 69.3223 266.486C65.8818 268.475 61.4583 271.401 63.9158 276.316C66.3733 281.231 71.7798 283.917 79.1522 283.917C86.5247 283.917 95.2116 281.231 97.0062 274.842C98.8007 268.452 95.8631 255.41 97.0976 249.158C98.3321 242.906 97.3948 230.15 97.612 224.229C97.8291 218.308 105.499 204.957 101.67 202.831C97.8406 200.705 89.4737 198.819 87.5077 201.688C85.5417 204.557 79.3008 210.707 78.8207 216.605Z" fill="#F5E58A"/>
<path d="M102.778 225.909C102.847 231.293 103.258 248.061 102.778 252.198C102.298 256.336 103.487 266.921 105.247 271.835C107.008 276.75 113.603 280.202 121.958 282.888C130.314 285.575 138.178 282.888 139.652 277.973C141.127 273.059 138.178 267.686 133.754 264.703C129.331 261.72 125.89 261.857 123.467 254.93C121.044 248.004 123.467 236.196 122.976 231.773C122.484 227.349 120.518 213.256 118.552 209.175C116.586 205.095 112.654 197.368 104.836 203.346C99.4179 207.461 102.721 221.017 102.778 225.909Z" fill="#F5E58A"/>
<path d="M65.4246 205.095C65.4246 205.095 67.6077 206.992 61.2183 216.822C54.8288 226.652 62.8071 234.333 50.0281 234.459C37.2492 234.584 35.0203 243.42 38.838 247.352C42.6556 251.284 49.5366 252.267 58.8751 247.352C68.2135 242.437 68.0992 240.814 73.9972 232.493C79.8952 224.172 80.9925 203.311 80.9925 203.311C80.9925 203.311 88.3878 189.389 87.0276 186.932C85.6674 184.475 76.9462 179.948 74.9802 179.457C73.0142 178.965 65.4246 205.095 65.4246 205.095Z" fill="#F5E58A"/>
<path d="M57.332 197.002C57.332 197.002 55.606 213.942 48.725 213.45C41.8441 212.959 29.1565 199.254 28.5736 196.533C26.8591 188.624 19.4295 186.772 15.7947 184.943C4.98171 179.468 -3.49949 189.858 2.07844 196.533C7.95356 203.62 11.6684 202.809 16.5833 207.232C21.4983 211.656 25.8532 221.291 31.4426 226.16C37.0319 231.03 44.5759 232.493 52.4398 229.121C60.3038 225.749 69.3908 215.405 72.3398 211.484C75.2888 207.564 69.3908 192.796 66.4418 192.796C63.4928 192.796 57.332 197.002 57.332 197.002Z" fill="#F5E58A"/>
<path d="M130.177 191.676C131.16 193.07 135.092 215.062 137.035 219.051C138.978 223.04 140.532 228.767 143.893 230.973C148.545 233.979 152.854 233.156 155.746 235.979C159.278 239.408 161.255 241.454 157.815 245.603C154.374 249.752 152.957 249.467 145.573 248.689C136.235 247.706 130.611 241.626 127.662 235.773C124.713 229.921 118.815 220.217 116.849 213.027C114.883 205.838 112.425 189.698 116.849 186.475C121.272 183.252 130.177 191.676 130.177 191.676Z" fill="#F5E58A"/>
<path d="M139.641 201.746C139.641 201.746 147.516 211.496 152.923 212.479C158.329 213.461 167.668 215.016 170.125 207.106C172.583 199.197 172.411 185.88 172.583 184.875C173.566 179.548 175.04 176.953 179.955 172.599C184.87 168.244 191.751 167.295 195.683 169.981C199.615 172.667 201.089 180.851 199.615 184.84C198.14 188.829 193.968 191.31 192.242 197.699C190.89 202.971 189.249 208.164 187.327 213.256C183.761 223.063 179.246 225.383 169.634 227.681C160.021 229.978 155.14 228.298 147.025 226.446C138.909 224.594 130.805 215.393 129.822 212.444C128.839 209.495 120.747 196.979 130.074 196.979C139.401 196.979 139.641 201.746 139.641 201.746Z" fill="#F5E58A"/>
<path d="M93.9428 4.07196C110.699 4.07196 129.079 35.8593 136.943 55.062C144.807 74.2647 157.598 96.2107 160.295 131.256C162.798 163.649 160.295 195.139 160.295 200.98C160.295 206.821 143.15 213.77 134.737 216.719C126.325 219.668 112.62 222.126 97.8748 221.634C83.1299 221.143 64.9445 218.994 52.1541 210.97C39.3637 202.946 38.8836 202.969 36.9177 193.39C34.9517 183.812 32.1398 145.898 34.4602 122.992C37.1463 96.5421 41.5926 78.4139 51.4226 57.8395C61.2525 37.2652 77.2205 4.08339 93.9428 4.07196Z" fill="#D3CF58"/>
<path d="M9.40522 151.51C11.3712 169.97 32.6199 201.208 103.59 196.533C174.56 191.858 180.447 159.557 181.189 140.091C181.91 120.923 178.972 105.801 164.97 80.7456C150.968 55.6907 152.603 59.9198 141.378 44.6148C130.748 30.0871 112.391 12.256 93.4514 14.0162C74.5116 15.7765 54.7488 32.5788 41.4783 51.2558C28.2079 69.9327 20.4696 81.4772 13.8287 111.15C8.94801 132.993 8.38793 141.897 9.40522 151.51Z" fill="#F5E58A"/>
<path d="M93.9428 0.745789C110.699 0.745789 129.079 32.5331 136.943 51.7358C144.807 70.9386 157.598 92.8845 160.295 127.929C162.798 160.334 160.295 191.813 160.295 197.722C160.295 203.632 143.15 210.501 134.737 213.45C126.325 216.399 112.597 218.891 97.8748 218.365C83.1527 217.839 64.9445 215.725 52.1541 207.701C39.3637 199.677 38.8836 199.7 36.9177 190.121C34.9517 180.543 32.1398 142.629 34.4602 119.723C37.1463 93.2731 41.5926 75.1449 51.4226 54.5705C61.2525 33.9962 77.2205 0.757219 93.9428 0.745789Z" fill="#F6F18E"/>
<path d="M56.5776 115.288C59.8728 115.288 62.5441 112.616 62.5441 109.321C62.5441 106.026 59.8728 103.355 56.5776 103.355C53.2823 103.355 50.611 106.026 50.611 109.321C50.611 112.616 53.2823 115.288 56.5776 115.288Z" fill="#603913"/>
<path d="M139.664 115.288C142.959 115.288 145.63 112.616 145.63 109.321C145.63 106.026 142.959 103.355 139.664 103.355C136.368 103.355 133.697 106.026 133.697 109.321C133.697 112.616 136.368 115.288 139.664 115.288Z" fill="#603913"/>
<path d="M47.4449 97.068L46.519 96.1192C46.5991 96.0392 54.7259 88.3467 65.2074 95.5592L64.4644 96.7022C54.8402 90.0498 47.4449 96.9879 47.4449 97.068Z" fill="#603913"/>
<path d="M131.194 97.068L130.268 96.1192C130.359 96.0392 138.475 88.3467 148.968 95.5592L148.213 96.7022C138.612 90.0498 131.262 96.9879 131.194 97.068Z" fill="#603913"/>
<path d="M99.6122 188.624C102.289 188.624 104.459 184.381 104.459 179.148C104.459 173.915 102.289 169.672 99.6122 169.672C96.9356 169.672 94.7658 173.915 94.7658 179.148C94.7658 184.381 96.9356 188.624 99.6122 188.624Z" fill="#F5E58A"/>
<path d="M99.6122 189.287C96.5261 189.287 94.1029 184.84 94.1029 179.148C94.1029 173.456 96.5261 169.01 99.6122 169.01C102.698 169.01 105.133 173.467 105.133 179.148C105.133 184.829 102.71 189.287 99.6122 189.287ZM99.6122 170.335C97.3262 170.335 95.4288 174.37 95.4288 179.148C95.4288 183.926 97.3491 187.972 99.6122 187.972C101.875 187.972 103.807 183.926 103.807 179.148C103.807 174.37 101.887 170.335 99.6122 170.335V170.335Z" fill="#603913"/>
</svg>
