<svg width="1137" height="1169" viewBox="0 0 1137 1169" fill="none" xmlns="http://www.w3.org/2000/svg">
<path d="M869.315 461.321C869.275 460.354 868.881 459.435 868.207 458.741C867.533 458.046 866.627 457.625 865.662 457.556C864.697 457.487 863.741 457.776 862.976 458.368C862.21 458.96 861.69 459.813 861.513 460.765C856.42 490.41 848.664 525.15 839.403 526.979C823.197 530.291 746.797 526.979 746.797 526.979L743.301 434.825C743.335 433.904 743.002 433.007 742.374 432.332C741.747 431.656 740.877 431.258 739.956 431.224C739.035 431.19 738.138 431.524 737.463 432.151C736.788 432.779 736.39 433.649 736.356 434.571C730.29 495.065 719.849 586.686 711.792 592.059C699.684 600.142 608.351 596.089 608.351 596.089V535.664C608.351 535.664 682.228 519.452 684.913 484.596C687.599 449.74 683.571 336.627 683.571 336.627C683.571 336.627 729.249 324.676 730.591 297.81C731.216 285.165 729.063 259.99 726.609 236.899C726.492 236.03 726.058 235.235 725.391 234.665C724.724 234.096 723.871 233.792 722.995 233.812C722.118 233.832 721.28 234.175 720.64 234.774C720 235.373 719.603 236.188 719.525 237.061C717.927 261.38 714.339 286.462 706.398 291.094C690.192 300.497 666.114 297.81 662.086 327.363C660.743 337.229 659.979 349.55 658.937 371.714C648.982 365.021 624.21 354.205 621.895 336.627C619.904 322.198 615.76 243.43 613.144 190.718C613.094 189.797 612.698 188.929 612.036 188.288C611.374 187.646 610.494 187.278 609.572 187.258C608.651 187.237 607.756 187.566 607.066 188.177C606.376 188.789 605.942 189.638 605.851 190.556C601.452 242.666 597.54 324.236 610.805 367.962C614.695 380.747 645.348 399.437 657.525 407.566C655.21 443.765 651.251 478.297 642.037 481.84C624.581 488.557 571.517 495.296 571.517 495.296C571.517 495.296 518.454 488.557 500.998 481.84C491.737 478.297 487.802 443.765 485.51 407.566C497.687 399.437 528.34 380.747 532.229 367.962C545.472 324.236 541.49 242.666 537.161 190.556C537.139 189.592 536.735 188.675 536.039 188.009C535.342 187.342 534.409 186.979 533.445 187.001C532.481 187.022 531.565 187.426 530.898 188.123C530.232 188.82 529.869 189.754 529.891 190.718C527.252 243.361 523.108 322.128 521.14 336.627C518.825 354.205 493.937 365.021 483.981 371.714C482.94 349.55 482.176 337.229 480.833 327.363C476.805 297.81 452.634 300.497 436.498 291.094C428.58 286.462 424.922 261.38 423.394 237.061C423.316 236.188 422.919 235.373 422.279 234.774C421.639 234.175 420.801 233.832 419.924 233.812C419.048 233.792 418.195 234.096 417.528 234.665C416.861 235.235 416.427 236.03 416.31 236.899C413.856 260.059 411.679 285.165 412.328 297.81C413.67 324.676 459.348 336.627 459.348 336.627C459.348 336.627 455.32 449.671 458.006 484.596C460.691 519.522 534.568 535.664 534.568 535.664V596.135C534.568 596.135 443.212 600.188 431.127 592.106C423.07 586.732 412.605 495.111 406.563 434.617C406.529 433.696 406.131 432.825 405.456 432.198C404.781 431.57 403.884 431.237 402.963 431.27C402.042 431.304 401.172 431.703 400.545 432.378C399.917 433.053 399.584 433.95 399.617 434.872L396.214 526.979C396.214 526.979 319.629 530.291 303.608 526.979C294.348 525.103 286.569 490.386 281.499 460.765C281.322 459.813 280.801 458.96 280.036 458.368C279.271 457.776 278.314 457.487 277.349 457.556C276.384 457.625 275.479 458.046 274.805 458.741C274.131 459.435 273.736 460.354 273.697 461.321C272.747 492.193 272.331 530.338 275.387 541.038C280.758 559.867 397.65 552.618 397.65 552.618C397.65 552.618 396.307 648.547 417.791 648.547H540.494L510.652 1140.26C510.441 1143.95 510.986 1147.65 512.254 1151.13C513.522 1154.61 515.487 1157.79 518.027 1160.48C520.567 1163.17 523.63 1165.31 527.028 1166.78C530.425 1168.24 534.086 1169 537.786 1169H604.925C608.63 1169 612.296 1168.24 615.697 1166.77C619.098 1165.3 622.163 1163.15 624.703 1160.45C627.242 1157.76 629.203 1154.57 630.464 1151.08C631.725 1147.59 632.26 1143.89 632.035 1140.19L602.633 648.547H725.22C746.705 648.547 745.362 552.618 745.362 552.618C745.362 552.618 862.231 559.867 867.602 541.038C870.681 530.338 870.241 492.193 869.315 461.321Z" fill="#DEAC78"/>
<path d="M999.5 290.5C999.5 290.5 993.817 94.6978 830.707 94.6978C830.707 94.6978 716.019 0 565.353 0C414.687 0 363.637 150.539 363.637 150.539C200.657 150.539 194.974 346.341 194.974 346.341C61.3571 337.824 -22.9742 526.773 5.53903 679.629C34.0523 832.486 241.353 863.357 241.353 863.357C241.353 863.357 259.546 948.205 332.315 968.47C484.875 1011.06 565.418 910.709 565.418 910.709C565.418 910.709 645.961 1011.06 798.522 968.47C871.258 948.139 889.483 863.357 889.483 863.357C889.483 863.357 1097.08 832.583 1125.49 679.695C1153.91 526.806 1133.12 282.048 999.5 290.5Z" fill="#387052"/>
</svg>
