<svg width="139" height="139" viewBox="0 0 139 139" fill="none" xmlns="http://www.w3.org/2000/svg">
<path d="M138.44 69.7336C138.44 107.843 107.549 138.734 69.4397 138.734C66.4462 138.735 63.4557 138.543 60.4871 138.158C26.6077 133.768 0.439697 104.809 0.439697 69.7336C0.439697 31.6276 31.3337 0.733643 69.4397 0.733643C70.0569 0.733643 70.6741 0.733627 71.2912 0.761366C108.544 1.73916 138.44 32.2448 138.44 69.7336Z" fill="#749DA7"/>
<path d="M61.4313 65.3192C61.0448 65.5313 60.7423 65.8798 60.5772 66.3031C60.4121 66.7264 60.3951 67.1973 60.5292 67.6325C62.3958 73.4521 66.3267 77.3367 70.164 76.6565C74.6986 75.8527 77.3736 69.0183 76.1385 61.3509C75.8378 59.4432 75.2915 57.587 74.5147 55.8332C74.3733 55.5281 74.1586 55.2669 73.8916 55.0753C73.6246 54.8836 73.3146 54.7682 72.9921 54.7403C72.6697 54.7124 72.3458 54.773 72.0525 54.9161C71.7592 55.0593 71.5065 55.2801 71.3193 55.5568C68.5923 59.5396 65.5149 63.0313 61.4313 65.3192Z" fill="white"/>
<path d="M105.861 56.9191C106.292 56.986 106.686 57.2105 106.975 57.5531C107.263 57.8958 107.428 58.3345 107.438 58.7919C107.504 64.9568 105.012 69.974 101.174 70.6553C96.6428 71.4642 91.9696 65.9187 90.7355 58.2454C90.4231 56.336 90.3578 54.3909 90.5413 52.4631C90.5788 52.1254 90.6995 51.8038 90.8913 51.53C91.0831 51.2563 91.3395 51.0398 91.6352 50.9019C91.9309 50.7639 92.2557 50.7094 92.5776 50.7436C92.8994 50.7777 93.2073 50.8995 93.4707 51.0968C97.2911 53.9278 101.288 56.1649 105.861 56.9191Z" fill="white"/>
<path d="M11.9397 68.7336C15.2709 68.7336 15.2752 65.7336 11.9397 65.7336C8.60421 65.7336 8.60852 68.7336 11.9397 68.7336Z" fill="#363636"/>
<path d="M71.4403 71.7336C74.1027 71.7336 74.1096 68.7336 71.4403 68.7336C68.7711 68.7336 68.7745 71.7336 71.4403 71.7336Z" fill="#363636"/>
<path d="M97.9994 66C95.337 66 95.3301 63 97.9994 63C100.669 63 100.665 66 97.9994 66Z" fill="#363636"/>
<path d="M112.677 101.532C109.474 101.947 104.996 102.155 100.348 103.262C93.232 104.943 84.6716 110.385 78.8987 113.496C77.6169 114.218 76.2869 114.848 74.9183 115.381C73.8039 115.779 72.9997 115.865 72.5874 115.509C70.3109 113.53 72.1239 110.105 72.1239 110.105C72.1239 110.105 75.0683 86.9735 86.7776 84.3061C98.4869 81.6387 110.343 88.7657 115.87 95.903C116.756 97.0482 117.233 97.9477 117.39 98.6708C117.779 100.518 115.85 101.124 112.677 101.532Z" fill="#B5C7C6"/>
<path d="M113.44 101.402C110.215 101.83 105.708 102.044 101.029 103.185C93.867 104.918 85.2504 110.528 79.4397 113.734C81.0519 107.593 83.158 98.3424 87.5384 96.6164C90.8073 95.3183 94.3164 97.4722 94.313 97.5935C94.4296 97.3938 96.1035 93.6708 101.173 92.7721C104.171 92.223 108.384 97.672 113.44 101.402Z" fill="#E07979"/>
<path d="M72.3992 70.8282C72.3772 70.8326 72.3542 70.8354 72.3308 70.8367L72.5495 70.8212C72.5269 70.8233 72.5038 70.8233 72.4812 70.8212L72.6971 70.8367C72.6745 70.8342 72.6525 70.8304 72.6315 70.8254L72.8283 70.8678C72.7763 70.8537 72.7873 70.8579 72.8529 70.8819C72.9137 70.9013 72.9636 70.9285 72.9977 70.961L73.0797 71.0612V71.0443C73.023 70.9588 72.9218 70.8831 72.7873 70.8254C72.6469 70.7661 72.4712 70.7337 72.2899 70.7336C72.1458 70.7372 72.0049 70.7569 71.8772 70.7915C71.6925 70.8471 71.5572 70.9378 71.5 71.0443C71.5 71.0909 71.4754 71.1375 71.4618 71.1855C71.422 71.2797 71.4362 71.3778 71.5028 71.4679C71.5651 71.5539 71.6841 71.6259 71.8389 71.6712C72.0283 71.7215 72.2421 71.7421 72.4538 71.7305C72.6054 71.7233 72.751 71.6966 72.8774 71.6528C73.0214 71.6032 73.1412 71.537 73.2273 71.4594C73.3432 71.3438 73.3743 71.2104 73.3148 71.0838C73.2567 70.9756 73.1178 70.8837 72.9287 70.8284C72.7396 70.7731 72.5157 70.7588 72.3063 70.7887C72.1007 70.8179 71.9252 70.8873 71.817 70.9821C71.7165 71.083 71.6875 71.1989 71.7351 71.3097V71.3253L71.7077 71.2137V71.2292L71.7378 71.1177V71.1332L71.8198 71.0316C71.7788 71.0711 71.8198 71.0556 71.9182 70.9892C72.0165 70.9228 72.0767 70.9172 72.0029 70.9398L72.1997 70.8974C72.1794 70.9015 72.1583 70.9044 72.1368 70.9059L72.3555 70.8904H72.309L72.5276 70.9045H72.4948L72.6916 70.9468H72.6616L73.0387 71.4255L73.0742 71.2843H71.4891C71.5793 71.4224 71.7613 71.5395 72.0029 71.6147C72.1291 71.6504 72.2676 71.6729 72.4107 71.6809C72.5537 71.6889 72.6984 71.6823 72.8365 71.6613C72.9404 71.6466 73.0376 71.6214 73.1227 71.5872C73.2078 71.5531 73.279 71.5106 73.3323 71.4622C73.3856 71.4138 73.4199 71.3605 73.4333 71.3053C73.4467 71.25 73.4389 71.194 73.4104 71.1403C73.3819 71.0866 73.3331 71.0364 73.267 70.9924C73.2009 70.9485 73.1187 70.9116 73.025 70.8841C72.9314 70.8566 72.8282 70.8388 72.7212 70.8319C72.6143 70.825 72.5058 70.829 72.4019 70.8438L72.3992 70.8282Z" fill="#363636"/>
<path d="M12.2556 67.1746L11.9901 67.4006C11.8501 67.5008 11.7494 67.6225 11.697 67.7548C11.6446 67.8872 11.642 68.0261 11.6896 68.1592C11.7454 68.289 11.85 68.4071 11.9933 68.5026C12.1367 68.598 12.3143 68.6676 12.5092 68.7047C12.8912 68.766 13.2937 68.7291 13.6366 68.6015C13.9795 68.4739 14.2375 68.2649 14.3592 68.0163C14.4238 67.8921 14.4499 67.7605 14.4361 67.6293C14.4223 67.4982 14.3687 67.3703 14.2786 67.2533C14.1886 67.1363 14.0639 67.0327 13.912 66.9486C13.7602 66.8645 13.5844 66.8018 13.3951 66.7642C13.0308 66.7045 12.6464 66.7329 12.3105 66.8442C11.9746 66.9555 11.709 67.1426 11.5609 67.3721C11.4736 67.5071 11.4326 67.6534 11.4407 67.8003C11.4488 67.9472 11.5058 68.0911 11.6077 68.2216C11.7121 68.3431 11.8617 68.4447 12.0422 68.5165C12.2226 68.5884 12.4278 68.6282 12.638 68.632L12.9658 68.6476C13.2764 68.6476 13.5742 68.5655 13.7938 68.4193C14.0133 68.2732 14.1367 68.0749 14.1367 67.8683C14.1297 67.663 14.0042 67.4674 13.7861 67.3223C13.568 67.1771 13.2742 67.0935 12.9658 67.0889L12.638 67.0733L13.6488 67.4578V67.4344L13.7659 67.6188C13.7624 67.6025 13.7624 67.5859 13.7659 67.5695C13.7659 67.637 13.7932 67.7072 13.8089 67.7747V67.7487C13.8089 67.8189 13.7815 67.8864 13.7659 67.9566C13.7722 67.9308 13.7826 67.9055 13.7971 67.8812L13.6801 68.0657C13.7542 67.9696 13.4654 68.2111 13.5942 68.1358C13.5513 68.1618 13.321 68.2527 13.4966 68.1982L13.2156 68.2761C13.2404 68.2685 13.2667 68.2633 13.2937 68.2605L12.9815 68.2891C13.0086 68.2865 13.0362 68.2865 13.0634 68.2891L12.7512 68.2605C12.7758 68.2579 12.8008 68.2579 12.8253 68.2605L12.5483 68.1826C12.6497 68.2189 12.6068 68.1826 12.4156 68.0813C12.2243 67.9799 12.2087 67.9254 12.2673 67.9929L12.1502 67.8059C12.1614 67.8206 12.1693 67.8364 12.1736 67.8526C12.1736 67.7851 12.1463 67.715 12.1306 67.6474C12.1345 67.6725 12.1345 67.6977 12.1306 67.7228L12.1697 67.5149C12.1627 67.5409 12.1509 67.5662 12.1345 67.5903L12.2517 67.4058C12.1892 67.4864 12.1463 67.4552 12.3453 67.3357C12.3804 67.3123 12.6263 67.2188 12.4507 67.2681L12.7317 67.1902C12.7071 67.1929 12.6821 67.1929 12.6576 67.1902L12.9697 67.1642H12.9307L13.243 67.1902C13.2172 67.1939 13.1906 67.1939 13.1649 67.1902C13.3366 67.6241 13.5123 68.0579 13.684 68.4891C13.7698 68.4112 13.8596 68.3359 13.9493 68.2605C14.1594 68.1103 14.2814 67.9149 14.2928 67.7098C14.2925 67.5032 14.169 67.3051 13.9493 67.159C13.73 67.0128 13.4324 66.9306 13.122 66.9304C12.9672 66.9282 12.8134 66.9474 12.6703 66.9868C12.5272 67.0261 12.398 67.0848 12.2907 67.159L12.2556 67.1746Z" fill="#363636"/>
<path d="M33.577 38.9017C28.101 69.9457 38.5874 114.723 60.6129 137.734C26.6625 133.358 0.439697 104.488 0.439697 69.5205C0.439697 31.5322 31.3984 0.733643 69.5843 0.733643C70.2028 0.733643 70.8212 0.733627 71.4397 0.76128C53.9763 8.48339 36.8049 20.5989 33.577 38.9017Z" fill="#6E959E"/>
</svg>
