<svg width="30" height="38" viewBox="0 0 30 38" fill="none" xmlns="http://www.w3.org/2000/svg">
<path fill-rule="evenodd" clip-rule="evenodd" d="M23.5416 1.52561C17.8763 0.711517 12.1237 0.711517 6.45843 1.52561C3.64957 1.92923 1.48547 4.2089 1.22839 7.03494L0.98504 9.71009C0.422782 15.8909 0.422783 22.11 0.985041 28.2908L1.22839 30.966C1.48547 33.792 3.64957 36.0717 6.45842 36.4753C12.1237 37.2894 17.8763 37.2894 23.5416 36.4753C26.3505 36.0717 28.5146 33.792 28.7716 30.966L29.015 28.2908C29.5772 22.11 29.5772 15.8909 29.015 9.71009L28.7716 7.03493C28.5146 4.20889 26.3505 1.92923 23.5416 1.52561ZM11.1667 13.2505C11.1667 11.1334 12.8829 9.41715 15 9.41715C17.1171 9.41715 18.8333 11.1334 18.8333 13.2505C18.8333 15.3676 17.1171 17.0838 15 17.0838C12.8829 17.0838 11.1667 15.3676 11.1667 13.2505ZM7.33333 25.7088C7.33333 22.5332 9.90769 19.9588 13.0833 19.9588H16.9167C20.0923 19.9588 22.6667 22.5332 22.6667 25.7088C22.6667 26.7674 21.8085 27.6255 20.75 27.6255H9.25C8.19145 27.6255 7.33333 26.7674 7.33333 25.7088Z" fill="#4D895C"/>
</svg>
